<svg width="53" height="39" viewBox="0 0 53 39" fill="none" xmlns="http://www.w3.org/2000/svg">
<path fill-rule="evenodd" clip-rule="evenodd" d="M19.375 19.5C24.6217 19.5 28.875 15.2467 28.875 10C28.875 4.75329 24.6217 0.5 19.375 0.5C14.1283 0.5 9.875 4.75329 9.875 10C9.875 15.2467 14.1283 19.5 19.375 19.5ZM19.375 24.25C13.0337 24.25 0.375 27.4325 0.375 33.75V36.125C0.375 37.4313 1.44375 38.5 2.75 38.5H36C37.3063 38.5 38.375 37.4313 38.375 36.125V33.75C38.375 27.4325 25.7162 24.25 19.375 24.25ZM45.5 7.625V14.75H52.625V19.5H45.5V26.625H40.75V19.5H33.625V14.75H40.75V7.625H45.5Z" fill="#3E97FF"/>
</svg>
