<svg width="14" height="12" viewBox="0 0 14 12" fill="none" xmlns="http://www.w3.org/2000/svg">
<path fill-rule="evenodd" clip-rule="evenodd" d="M7.00065 2.66667V1.33333C7.00065 0.6 6.40065 0 5.66732 0H1.66732C0.933984 0 0.333984 0.6 0.333984 1.33333V10.6667C0.333984 11.4 0.933984 12 1.66732 12H12.334C13.0673 12 13.6673 11.4 13.6673 10.6667V4C13.6673 3.26667 13.0673 2.66667 12.334 2.66667H7.00065ZM3.00065 10.6667H1.66732V9.33333H3.00065V10.6667ZM3.00065 8H1.66732V6.66667H3.00065V8ZM3.00065 5.33333H1.66732V4H3.00065V5.33333ZM3.00065 2.66667H1.66732V1.33333H3.00065V2.66667ZM5.66732 10.6667H4.33398V9.33333H5.66732V10.6667ZM5.66732 8H4.33398V6.66667H5.66732V8ZM5.66732 5.33333H4.33398V4H5.66732V5.33333ZM5.66732 2.66667H4.33398V1.33333H5.66732V2.66667ZM11.6673 10.6667H7.00065V9.33333H8.33398V8H7.00065V6.66667H8.33398V5.33333H7.00065V4H11.6673C12.034 4 12.334 4.3 12.334 4.66667V10C12.334 10.3667 12.034 10.6667 11.6673 10.6667ZM11.0007 5.33333H9.66732V6.66667H11.0007V5.33333ZM11.0007 8H9.66732V9.33333H11.0007V8Z" fill="#F98600"/>
</svg>
