<svg width="16" height="16" viewBox="0 0 16 16" fill="none" xmlns="http://www.w3.org/2000/svg">
<path d="M8 12.6667C7.91226 12.6672 7.82529 12.6504 7.74406 12.6172C7.66284 12.584 7.58896 12.5351 7.52667 12.4733L3.57333 8.48001C3.50354 8.42024 3.44686 8.3467 3.40685 8.26399C3.36683 8.18128 3.34435 8.09119 3.3408 7.99937C3.33725 7.90756 3.35272 7.81601 3.38624 7.73046C3.41976 7.64491 3.4706 7.56721 3.53557 7.50224C3.60054 7.43727 3.67823 7.38643 3.76378 7.35291C3.84933 7.3194 3.94089 7.30393 4.0327 7.30747C4.12451 7.31102 4.2146 7.33351 4.29731 7.37352C4.38002 7.41354 4.45357 7.47022 4.51333 7.54001L8 11.0267L11.4867 7.54001C11.5464 7.47022 11.62 7.41354 11.7027 7.37352C11.7854 7.33351 11.8755 7.31102 11.9673 7.30747C12.0591 7.30393 12.1507 7.3194 12.2362 7.35291C12.3218 7.38643 12.3995 7.43727 12.4644 7.50224C12.5294 7.56721 12.5802 7.64491 12.6138 7.73046C12.6473 7.81601 12.6627 7.90756 12.6592 7.99937C12.6557 8.09119 12.6332 8.18128 12.5932 8.26399C12.5531 8.3467 12.4965 8.42024 12.4267 8.48001L8.47333 12.44C8.41388 12.5078 8.34127 12.5629 8.25991 12.6019C8.17855 12.6408 8.09013 12.6629 8 12.6667Z" fill="#F1416C"/>
<path opacity="0.3" d="M8 12.6667C7.82319 12.6667 7.65362 12.5964 7.52859 12.4714C7.40357 12.3464 7.33333 12.1768 7.33333 12V4.05332C7.33333 3.87651 7.40357 3.70694 7.52859 3.58192C7.65362 3.4569 7.82319 3.38666 8 3.38666C8.17681 3.38666 8.34638 3.4569 8.4714 3.58192C8.59643 3.70694 8.66667 3.87651 8.66667 4.05332V12C8.66667 12.1768 8.59643 12.3464 8.4714 12.4714C8.34638 12.5964 8.17681 12.6667 8 12.6667Z" fill="#F1416C"/>
</svg>
