<svg width="20" height="15" viewBox="0 0 20 15" fill="none" xmlns="http://www.w3.org/2000/svg">
<path fill-rule="evenodd" clip-rule="evenodd" d="M17.5006 0.333313H2.50065C1.58398 0.333313 0.833984 1.08331 0.833984 1.99998V12.8333C0.833984 13.75 1.58398 14.5 2.50065 14.5H17.5006C18.4173 14.5 19.1673 13.75 19.1673 12.8333V1.99998C19.1673 1.08331 18.4173 0.333313 17.5006 0.333313ZM17.5007 12C17.5007 12.4583 17.1257 12.8333 16.6673 12.8333H10.0007V1.99998H16.6673C17.1257 1.99998 17.5007 2.37498 17.5007 2.83331V12ZM16.0423 4.91665H11.459C11.1173 4.91665 10.834 5.19998 10.834 5.54165C10.834 5.88331 11.1173 6.16665 11.459 6.16665H16.0423C16.384 6.16665 16.6673 5.88331 16.6673 5.54165C16.6673 5.19998 16.384 4.91665 16.0423 4.91665ZM16.0423 6.99998H11.459C11.1173 6.99998 10.834 7.28331 10.834 7.62498C10.834 7.96665 11.1173 8.24998 11.459 8.24998H16.0423C16.384 8.24998 16.6673 7.96665 16.6673 7.62498C16.6673 7.28331 16.384 6.99998 16.0423 6.99998ZM16.0423 9.08331H11.459C11.1173 9.08331 10.834 9.36665 10.834 9.70831C10.834 10.05 11.1173 10.3333 11.459 10.3333H16.0423C16.384 10.3333 16.6673 10.05 16.6673 9.70831C16.6673 9.36665 16.384 9.08331 16.0423 9.08331Z" fill="#969696"/>
</svg>
