<svg width="22" height="22" viewBox="0 0 22 22" fill="none" xmlns="http://www.w3.org/2000/svg">
<path opacity="0.3" d="M10.0833 1.88832C8.65878 2.05482 7.30735 2.60948 6.17656 3.49175C5.04578 4.37401 4.17911 5.54998 3.67116 6.89127C3.16321 8.23255 3.03351 9.68761 3.29621 11.0976C3.55891 12.5076 4.20392 13.8183 5.16083 14.8867L9.16666 19.3325C9.39866 19.5883 9.68163 19.7927 9.99738 19.9326C10.3131 20.0725 10.6546 20.1448 11 20.1448C11.3453 20.1448 11.6869 20.0725 12.0026 19.9326C12.3184 19.7927 12.6013 19.5883 12.8333 19.3325L16.8208 14.8867C17.8757 13.7014 18.5461 12.2239 18.7432 10.6495C18.9403 9.07506 18.6549 7.4779 17.9247 6.06918C17.1945 4.66047 16.0539 3.50656 14.6538 2.76004C13.2537 2.01352 11.6599 1.70955 10.0833 1.88832ZM11 12.6042C10.4176 12.606 9.84784 12.4349 9.36274 12.1127C8.87764 11.7905 8.49907 11.3316 8.27495 10.7941C8.05084 10.2566 7.99125 9.66463 8.10375 9.09324C8.21625 8.52185 8.49577 7.99669 8.90692 7.58426C9.31807 7.17182 9.84236 6.89066 10.4134 6.77638C10.9844 6.6621 11.5765 6.71983 12.1147 6.94227C12.653 7.16471 13.1131 7.54185 13.4368 8.02594C13.7605 8.51003 13.9333 9.07929 13.9333 9.66165C13.9333 10.4405 13.6246 11.1875 13.0747 11.7391C12.5249 12.2906 11.7788 12.6017 11 12.6042Z" fill="#A1A5B7"/>
<path d="M11 12.6867C12.7112 12.6867 14.0983 11.2995 14.0983 9.58832C14.0983 7.87716 12.7112 6.48999 11 6.48999C9.28883 6.48999 7.90166 7.87716 7.90166 9.58832C7.90166 11.2995 9.28883 12.6867 11 12.6867Z" fill="#A1A5B7"/>
</svg>
