<svg xmlns="http://www.w3.org/2000/svg" xmlns:xlink="http://www.w3.org/1999/xlink" width="191" height="191" fill="none" xmlns:v="https://vecta.io/nano"><style><![CDATA[.B{fill:#000}.C{fill:#fff}.D{fill:#3e97ff}.E{fill:#ffcdb2}.F{fill:#6c32ad}]]></style><path d="M175.128 187.617l-155.793-.768c-.111 0-.217-.046-.296-.129a.45.45 0 0 1-.122-.311.45.45 0 0 1 .122-.311c.078-.083.185-.129.296-.129l155.793.768c.111 0 .218.046.296.129a.45.45 0 0 1 .122.311.45.45 0 0 1-.122.311c-.078.083-.185.129-.296.129zm-151.855 3.454H.314c-.083 0-.163-.035-.222-.097a.34.34 0 0 1 0-.467c.059-.062.139-.097.222-.097h22.959c.083 0 .163.035.222.097a.34.34 0 0 1 0 .467c-.059.062-.139.097-.222.097zm167.411-9.916h-22.957c-.083 0-.163-.035-.222-.097a.34.34 0 0 1-.092-.233c0-.088.033-.172.092-.233a.31.31 0 0 1 .222-.097h22.959c.083 0 .163.035.222.097a.34.34 0 0 1 .092.233c0 .087-.034.171-.092.233s-.139.097-.222.097h-.002z" class="B"/><path d="M63.515 86.688c10.517-3.065 74.94 9.196 79.103 15.326s-27.467 83.773-34.182 83.773l-74.066.257c-10.002.22-17.311-28.35-14.023-34.987s27.604-60.279 35.717-61.3 7.451-3.07 7.451-3.07z" class="D"/><path d="M34.255 186.377c-2.928 0-5.855-2.346-8.476-6.798-5.061-8.568-8.103-23.846-5.711-28.678l2.056-4.306c11.422-24.148 27.365-56.347 33.902-57.17 5.213-.66 6.656-1.712 7.052-2.282a.54.54 0 0 0 .134-.37c-.019-.039-.029-.082-.029-.126s.01-.087.029-.125.052-.075.088-.101.078-.044.121-.051c5.54-1.615 25.124.948 42.075 4.207 15.773 3.032 35.025 7.794 37.367 11.242 1.892 2.788-3.043 17.905-6.155 26.67-4.797 13.515-11.275 29.063-16.905 40.578-5.531 11.312-9.36 17.049-11.378 17.049l-74.057.257-.113.003zm29.575-99.434c-.028.175-.09.342-.182.491-.719 1.201-3.329 2.115-7.547 2.641-2.02.255-6.554 4.487-16.684 23.204-6.658 12.307-13.212 26.161-16.729 33.605l-2.06 4.315c-2.116 4.278.307 18.924 5.688 28.027 1.773 3.001 4.601 6.56 8.051 6.483 10.575-.238 59.369-.258 74.072-.258.799 0 3.455-1.626 10.82-16.692 5.619-11.493 12.085-27.013 16.875-40.506 5.143-14.488 7.472-24.227 6.232-26.053-1.809-2.665-16.666-7.077-36.97-10.978-16.652-3.193-35.82-5.73-41.566-4.278z" class="B"/><g class="D"><path d="M130.676 110.043s-68.8-1.381-70.996.922c-.998 1.052-1.535 24.672-2.411 41.274-1.064 20.178-15.776 33.667-15.776 33.667h27.603l61.579-75.863z"/><path d="M53.872 89.408c-11.612 11.528-21.066 12.221-41.524 59.372-8.126 18.735 0 29.975 5.699 33.434s30.019 8.531 36.374-7.378l6.135-.22 1.752-18.215h-4.81s-1.096-7.378-10.079-7.841-19.063 4.621-21.035 5.303"/></g><path d="M34.569 186.139c-7.051 0-13.846-1.919-16.679-3.639-1.363-.828-5.979-4.078-8.175-11.172-2.041-6.601-1.23-14.439 2.348-22.684 16.495-38.024 25.885-45.921 34.965-53.557 2.15-1.809 4.373-3.679 6.629-5.919.061-.058.141-.089.223-.085s.16.04.216.103a.34.34 0 0 1 .086.233.34.34 0 0 1-.093.229c-2.275 2.26-4.508 4.139-6.669 5.954-9.021 7.589-18.35 15.436-34.785 53.317-3.555 8.207-4.343 15.678-2.323 22.204 2.127 6.87 6.579 10.008 7.892 10.805 4.09 2.484 16.612 5.384 25.964 2.07 4.833-1.714 8.187-4.841 9.965-9.29a.32.32 0 0 1 .111-.144c.049-.036.108-.057.167-.059l5.855-.22 1.69-17.566h-4.473c-.075 0-.147-.028-.204-.079s-.094-.122-.105-.2c-.044-.291-1.175-7.119-9.785-7.561-7.511-.381-15.862 3.16-19.425 4.674l-1.497.614c-.039.014-.081.02-.122.018s-.082-.013-.119-.032a.33.33 0 0 1-.098-.078c-.028-.033-.049-.071-.063-.112s-.02-.084-.017-.128a.35.35 0 0 1 .031-.126.33.33 0 0 1 .074-.103c.031-.029.067-.052.106-.066.299-.104.811-.322 1.464-.599 3.601-1.529 12.037-5.114 19.688-4.72 8.128.416 9.996 6.459 10.318 7.838h4.567c.044 0 .087.01.127.029a.31.31 0 0 1 .106.08c.029.034.052.074.066.118s.019.09.015.136l-1.755 18.216c-.008.079-.042.153-.098.207s-.127.087-.203.09l-5.935.22c-1.882 4.53-5.322 7.714-10.263 9.462-3.047 1.091-6.445 1.522-9.785 1.522z" class="B"/><path d="M53.549 176.166c.088-5.369 2.928-15.016 4.237-19.238h4.09l-1.66 17.249-5.811.22c-.245.61-.53 1.202-.855 1.769z" class="D"/><path d="M63.572 165.375s8.626 5.768 4.042 11.458-11.416.832-11.259-5.91 5.201-9.242 7.645-11.757" class="E"/><path d="M63 179.676c-.706-.003-1.406-.142-2.064-.412-2.969-1.188-4.981-4.621-4.895-8.351.128-5.481 3.358-8.198 5.951-10.383.663-.557 1.288-1.083 1.788-1.6.029-.032.064-.058.102-.075s.08-.027.122-.028.084.009.123.026a.32.32 0 0 1 .103.073.33.33 0 0 1 .068.111.34.34 0 0 1 .022.129c-.001.044-.011.088-.028.128s-.042.077-.073.107c-.523.541-1.161 1.078-1.834 1.646-2.493 2.097-5.596 4.709-5.717 9.884-.08 3.452 1.767 6.626 4.49 7.717 2.202.88 4.467.143 6.217-2.029 1.012-1.256 1.42-2.618 1.215-4.046-.544-3.77-5.14-6.888-5.188-6.919-.036-.022-.067-.052-.092-.088s-.043-.076-.052-.119a.35.35 0 0 1-.004-.131c.007-.043.022-.085.045-.122a.34.34 0 0 1 .086-.095c.035-.025.074-.042.114-.051s.084-.009.125-.001a.31.31 0 0 1 .115.051c.209.132 4.883 3.3 5.47 7.373.236 1.626-.221 3.167-1.357 4.575-1.391 1.727-3.089 2.63-4.852 2.63z" class="B"/><path d="M62.789 154.602s8.626 5.767 4.042 11.457-11.416.83-11.259-5.91 5.201-9.242 7.645-11.757" class="E"/><path d="M62.218 168.902c-.706-.004-1.406-.143-2.064-.411-2.97-1.191-4.981-4.621-4.896-8.351.128-5.481 3.359-8.201 5.954-10.384.661-.557 1.284-1.083 1.786-1.6a.32.32 0 0 1 .102-.075c.039-.018.08-.027.122-.027a.29.29 0 0 1 .123.025.31.31 0 0 1 .103.074c.029.031.053.069.068.11s.023.085.022.13a.35.35 0 0 1-.028.128c-.017.04-.042.076-.074.106-.523.541-1.161 1.076-1.834 1.644-2.493 2.099-5.596 4.711-5.717 9.884-.08 3.453 1.767 6.628 4.49 7.717 2.202.88 4.467.143 6.217-2.026 1.012-1.257 1.42-2.619 1.215-4.047-.544-3.772-5.14-6.89-5.188-6.92-.036-.023-.067-.053-.092-.089s-.042-.076-.052-.119-.011-.087-.004-.131a.34.34 0 0 1 .044-.122c.023-.037.052-.069.086-.094s.074-.043.115-.052.083-.009.125-.001a.31.31 0 0 1 .115.051c.209.134 4.883 3.301 5.471 7.376.236 1.626-.222 3.164-1.357 4.574-1.393 1.728-3.089 2.63-4.852 2.63z" class="B"/><path d="M63.598 145.544s8.626 5.767 4.042 11.457-11.416.83-11.259-5.91 3.407-6.577 6.483-7.261" class="E"/><path d="M63.028 159.845c-.706-.004-1.406-.143-2.064-.411-2.969-1.191-4.981-4.621-4.895-8.351.146-6.293 2.997-6.848 5.753-7.385l.97-.198c.08-.014.161.005.228.052s.114.121.131.204.003.17-.04.242-.109.125-.187.147l-.987.202c-2.739.533-5.107.995-5.241 6.751-.079 3.453 1.767 6.626 4.49 7.717 2.202.88 4.467.143 6.215-2.026 1.014-1.259 1.422-2.621 1.215-4.049-.544-3.774-5.14-6.888-5.186-6.918a.32.32 0 0 1-.092-.089.33.33 0 0 1-.052-.119c-.01-.043-.011-.087-.004-.131a.34.34 0 0 1 .044-.122c.023-.037.052-.069.086-.094s.073-.043.115-.052.083-.009.124-.001a.31.31 0 0 1 .115.051c.199.132 4.883 3.301 5.47 7.376.234 1.626-.221 3.164-1.357 4.574-1.391 1.728-3.089 2.63-4.851 2.63z" class="B"/><path d="M62.932 176.072h-.013c-.058 0-5.838-.317-5.949-7.482a.35.35 0 0 1 .021-.127.33.33 0 0 1 .066-.108c.029-.031.063-.057.1-.074a.31.31 0 0 1 .12-.028.31.31 0 0 1 .22.096c.059.061.092.144.094.23.102 6.527 5.134 6.822 5.347 6.833.041 0 .082.01.119.027a.33.33 0 0 1 .101.074c.029.031.051.068.066.108a.35.35 0 0 1 .021.127.36.36 0 0 1-.026.126.33.33 0 0 1-.07.106.32.32 0 0 1-.103.069c-.038.016-.079.024-.12.023h.006zm-.262-8.395c-.017.002-.035.002-.052 0-.056 0-5.498-1.058-6.274-7.285-.005-.044-.002-.088.009-.13s.03-.082.055-.116a.31.31 0 0 1 .21-.126c.083-.011.167.013.233.067s.11.133.12.221c.707 5.734 5.542 6.683 5.749 6.72.083.008.16.05.214.117s.08.154.073.242a.34.34 0 0 1-.111.225c-.064.056-.147.084-.23.076l.004-.011zm1.78-10.453c-.117 0-6.65-.063-7.319-6.878a.34.34 0 0 1 .069-.243c.053-.068.129-.112.212-.121s.166.017.231.072.106.136.115.224c.613 6.196 6.368 6.286 6.692 6.286.083 0 .163.035.222.097a.34.34 0 0 1 0 .467c-.059.062-.139.096-.222.096zm6.296-74.042s13.593 13.603-5.698 11.297c0 0-3.944 6.687-10.736 2.999s-3.727-10.377 1.096-11.99c4.18-1.402 15.339-2.306 15.339-2.306z" class="C"/><path d="M58.287 98.913a8.58 8.58 0 0 1-4.12-1.142c-2.842-1.54-4.297-3.789-4.093-6.322.22-2.735 2.371-5.316 5.228-6.276 4.168-1.395 14.954-2.284 15.41-2.321.044-.004.088.002.13.018s.079.04.111.072c.247.249 6.046 6.113 4.473 9.658-.956 2.152-4.392 2.902-10.234 2.229-.531.805-2.976 4.084-6.905 4.084zm12.338-15.39c-1.309.11-11.292.99-15.127 2.28-2.587.865-4.601 3.263-4.81 5.703-.182 2.249 1.152 4.265 3.764 5.677 2.718 1.472 5.272 1.439 7.606-.101a9.61 9.61 0 0 0 2.719-2.777c.031-.054.075-.097.129-.124s.113-.038.172-.03c5.573.66 8.955.033 9.783-1.831 1.288-2.887-3.476-8.012-4.231-8.797h-.004z" class="B"/><path d="M85.333 97.424c.855 0 1.547-.729 1.547-1.628s-.693-1.628-1.547-1.628-1.547.729-1.547 1.628.693 1.628 1.547 1.628zm-36.594 9.453c.855 0 1.547-.729 1.547-1.629s-.693-1.628-1.547-1.628-1.548.729-1.548 1.628.693 1.629 1.548 1.629zm-15.998 23.289c.855 0 1.548-.729 1.548-1.628s-.693-1.629-1.548-1.629-1.548.73-1.548 1.629.693 1.628 1.548 1.628zm14.463 10.144c.855 0 1.547-.729 1.547-1.628s-.693-1.628-1.547-1.628-1.548.729-1.548 1.628.693 1.628 1.548 1.628zm-30.898 8.762c.855 0 1.547-.729 1.547-1.628s-.693-1.628-1.547-1.628-1.547.729-1.547 1.628.693 1.628 1.547 1.628zm14.903 26.288c.855 0 1.547-.729 1.547-1.629s-.693-1.628-1.547-1.628-1.548.729-1.548 1.628.693 1.629 1.548 1.629zm14.463-12.684c.855 0 1.547-.729 1.547-1.628s-.693-1.629-1.547-1.629-1.548.729-1.548 1.629.693 1.628 1.548 1.628zm3.067 15.218c.855 0 1.547-.729 1.547-1.628s-.693-1.628-1.547-1.628-1.548.729-1.548 1.628.693 1.628 1.548 1.628z" fill="#e1e3ea"/><path d="M26.482 157.298c-.071 0-.139-.025-.195-.071a.33.33 0 0 1-.111-.183c-.017-.072-.009-.148.021-.216a.32.32 0 0 1 .143-.155c8.691-4.621 15.837-6.602 21.244-5.913 4.107.53 5.598 2.462 5.659 2.544.052.068.076.156.066.243s-.052.166-.117.221a.3.3 0 0 1-.231.07.31.31 0 0 1-.21-.123c-.015-.02-1.439-1.833-5.328-2.31-3.626-.44-10.178.22-20.799 5.857-.044.024-.093.036-.142.036z" class="C"/><path d="M27.798 135.621c-.072 0-.142-.026-.198-.074a.34.34 0 0 1-.109-.19c-2.049-10.545.807-25.651 3.566-36.466a223.41 223.41 0 0 1 6.531-21.135.34.34 0 0 1 .063-.117c.028-.034.063-.061.102-.08a.3.3 0 0 1 .249-.008c.04.017.076.042.106.074a.33.33 0 0 1 .091.244c-.002.045-.012.089-.03.13-.14.372-13.944 37.265-10.063 57.225a.35.35 0 0 1 .001.129.34.34 0 0 1-.046.119.32.32 0 0 1-.086.091c-.034.025-.073.042-.113.05a.27.27 0 0 1-.063.007zm-5.259 2.313a.31.31 0 0 1-.14-.034.32.32 0 0 1-.111-.096c-4.182-5.783-4.647-23.201-4.663-23.941-.001-.043.005-.086.02-.127s.037-.078.065-.109.063-.057.1-.075.078-.027.12-.027c.082 0 .16.033.218.093s.092.142.093.228c0 .18.483 17.944 4.538 23.558.05.07.073.158.062.245s-.054.165-.12.219c-.053.041-.116.064-.182.066z" class="B"/><path d="M63.731 185.901h85.366V113.04H63.731v72.861z" class="F"/><path d="M149.097 113.042v72.861H63.731v-72.861h85.366zm0-.66H63.731c-.166 0-.326.07-.444.193a.68.68 0 0 0-.184.467v72.861a.68.68 0 0 0 .184.467.61.61 0 0 0 .444.193h85.366a.61.61 0 0 0 .443-.193c.118-.124.184-.292.184-.467v-72.861c0-.175-.066-.343-.184-.467s-.277-.193-.443-.193z" class="B"/><path d="M69.175 178.028h74.728V119.58H69.175v58.448z" fill="#5e6278"/><path d="M143.903 119.58v58.448H69.174V119.58h74.729zm0-.66H69.174a.61.61 0 0 0-.444.193.68.68 0 0 0-.184.467v58.448a.68.68 0 0 0 .184.467c.118.123.277.193.444.193h74.729c.166 0 .326-.07.443-.193a.68.68 0 0 0 .184-.467V119.58c0-.175-.066-.343-.184-.467a.61.61 0 0 0-.443-.193zm-11.29 21.679h-30.371c-.083 0-.163-.035-.221-.097a.34.34 0 0 1 0-.467c.058-.062.138-.096.221-.096h30.371c.083 0 .163.034.221.096a.34.34 0 0 1 0 .467c-.058.062-.138.097-.221.097zm-.799 8.198h-29.572c-.083 0-.163-.035-.221-.097a.34.34 0 0 1 0-.466c.058-.062.138-.097.221-.097h29.572c.083 0 .163.035.222.097s.091.146.091.233a.34.34 0 0 1-.091.233c-.059.062-.139.097-.222.097z" class="B"/><path d="M149.388 185.903H66.289c-2.043 0-4.002-.854-5.446-2.374s-2.256-3.581-2.256-5.731h98.505c0 1.065-.199 2.119-.587 3.102a8.13 8.13 0 0 1-1.67 2.63c-.715.752-1.564 1.349-2.499 1.756a7.36 7.36 0 0 1-2.948.617z" fill="#59298f"/><path d="M157.089 177.796a8.46 8.46 0 0 1-.585 3.103c-.387.983-.954 1.877-1.67 2.629a7.69 7.69 0 0 1-2.499 1.758c-.934.407-1.936.617-2.948.617H66.286a7.38 7.38 0 0 1-2.948-.617 7.7 7.7 0 0 1-2.499-1.758c-.715-.753-1.282-1.646-1.669-2.629a8.48 8.48 0 0 1-.586-3.103h98.495.01zm.617-.66H57.957v.66c.002 2.324.88 4.553 2.442 6.196s3.679 2.568 5.887 2.571h83.101c2.209-.003 4.326-.927 5.888-2.571s2.439-3.872 2.442-6.196v-.66h-.011zm-42.875-21.401h-12.589c-.083 0-.163-.035-.221-.097a.34.34 0 0 1 0-.466c.058-.062.138-.097.221-.097h12.589c.084 0 .163.035.222.097a.34.34 0 0 1 .092.233c0 .088-.033.172-.092.233a.31.31 0 0 1-.222.097z" class="B"/><path d="M93.114 136.906H81.079c-2.875 0-5.205 2.452-5.205 5.477v11.052c0 3.025 2.331 5.477 5.205 5.477h12.035c2.875 0 5.205-2.452 5.205-5.477v-11.052c0-3.025-2.33-5.477-5.205-5.477z" class="D"/><path d="M93.112 159.243H81.079c-1.464-.002-2.867-.615-3.901-1.704s-1.616-2.566-1.618-4.106v-11.05c.002-1.54.584-3.016 1.618-4.105s2.437-1.7 3.901-1.702h12.033c1.463.002 2.866.614 3.9 1.702s1.617 2.565 1.618 4.105v11.05c-.001 1.54-.583 3.017-1.617 4.106s-2.438 1.702-3.901 1.704zm-12.033-22.005c-1.297.001-2.541.544-3.458 1.509a5.29 5.29 0 0 0-1.434 3.638v11.051c.001 1.364.517 2.673 1.434 3.638s2.16 1.509 3.458 1.511h12.033c1.297-.002 2.54-.545 3.457-1.511s1.433-2.274 1.434-3.638v-11.051a5.29 5.29 0 0 0-1.434-3.638c-.917-.965-2.16-1.508-3.457-1.509H81.079z" class="B"/><path d="M87.181 154.507h-.046a.71.71 0 0 1-.346-.117.76.76 0 0 1-.25-.277l-5.696-10.837c-.05-.089-.083-.187-.097-.29a.81.81 0 0 1 .018-.306.78.78 0 0 1 .13-.274c.061-.082.136-.149.222-.199a.71.71 0 0 1 .278-.093c.098-.01.196 0 .29.03s.181.08.256.146a.76.76 0 0 1 .182.24l5.142 9.778 4.157-6.007c.056-.082.128-.151.21-.204a.71.71 0 0 1 .268-.103c.095-.016.192-.012.285.012s.182.066.259.126.143.134.194.221.084.182.099.282.011.202-.011.3-.063.191-.12.273l-4.833 6.984c-.068.097-.158.177-.26.231a.7.7 0 0 1-.331.084z" class="C"/><path d="M58.475 114.169c-.082 0-.16-.034-.219-.094a.34.34 0 0 1-.095-.228c-.063-2.882.719-5.001 2.323-6.297 3.116-2.52 8.156-1.01 8.377-.944.08.024.147.081.187.158s.049.167.026.251-.077.155-.15.197-.159.052-.239.028c-.05-.016-4.958-1.481-7.821.834-1.437 1.161-2.135 3.098-2.077 5.758.001.043-.006.087-.021.127a.33.33 0 0 1-.066.108c-.029.032-.062.057-.1.074a.31.31 0 0 1-.12.028h-.006z" class="B"/><path d="M69.861 116.253c-.083 0-.162-.034-.22-.095a.34.34 0 0 1-.002-.465c.058-.063.138-.099.221-.1l27.829-.22c.041-.001.081.007.119.024a.31.31 0 0 1 .102.07c.029.03.052.066.068.106s.024.082.025.125a.34.34 0 0 1-.09.235.31.31 0 0 1-.221.1l-27.827.22h-.002zm80.645 65.945h-31.554c-.083 0-.163-.035-.221-.097a.34.34 0 0 1 0-.467c.058-.061.138-.096.221-.096h31.554a.31.31 0 0 1 .222.096.34.34 0 0 1 0 .467c-.059.062-.139.097-.222.097z" class="C"/><path d="M73.595 142.995c-.041-.001-.082-.01-.119-.027a.31.31 0 0 1-.101-.073.33.33 0 0 1-.066-.108.35.35 0 0 1-.022-.127c.075-4.139 1.138-6.997 3.156-8.498 2.635-1.956 5.885-.849 6.023-.801a.31.31 0 0 1 .106.066.33.33 0 0 1 .074.103.35.35 0 0 1 .03.126c.002.043-.004.086-.017.127s-.035.079-.063.112-.061.058-.098.077-.078.03-.119.032-.082-.004-.121-.018c-.031 0-3.095-1.047-5.466.719-1.844 1.374-2.815 4.054-2.886 7.966a.34.34 0 0 1-.093.228.31.31 0 0 1-.217.096zm22.35 18.682h-7.892c-.083 0-.163-.035-.222-.097a.34.34 0 0 1 0-.467c.059-.062.139-.096.222-.096h7.888c.083 0 .163.034.222.096a.34.34 0 0 1 0 .467c-.059.062-.139.097-.222.097h.004z" class="B"/><path d="M132.32 131.155s-21.669-11.462-19.061 3.946l-10.599 7.221s-.495 7.574 9.444 4.872c0 0 2.248 4.348 6.541 5.039 0 0 .448 4.218 8.465 3.277s14.946-11.102 14.946-11.102l-9.736-13.253z" class="E"/><path d="M124.898 155.978c-2.287 0-4.038-.502-5.228-1.497a3.85 3.85 0 0 1-1.292-1.96c-3.75-.713-5.906-4.04-6.431-4.947-3.529.918-6.16.66-7.82-.801-1.943-1.698-1.793-4.361-1.784-4.473.003-.051.017-.101.042-.145s.059-.081.1-.108l10.422-7.105c-.523-3.336.061-5.693 1.738-7.011 4.887-3.831 17.284 2.651 17.809 2.929a.33.33 0 0 1 .108.092l9.737 13.253c.041.057.062.126.062.197s-.021.141-.062.197c-.287.421-7.11 10.292-15.167 11.238-.742.09-1.487.137-2.234.141zm-12.794-9.114c.057 0 .112.016.161.046s.088.073.115.125c.023.042 2.229 4.214 6.314 4.872a.31.31 0 0 1 .178.097c.048.052.078.119.085.191.019.156.55 3.875 8.118 2.986 7.177-.843 13.576-9.36 14.588-10.782l-9.546-12.983c-.968-.499-12.681-6.414-17.089-2.955-1.508 1.184-1.999 3.398-1.464 6.582a.34.34 0 0 1-.021.189c-.024.06-.065.11-.117.145l-10.456 7.127c0 .566.126 2.507 1.568 3.765 1.533 1.336 4.053 1.541 7.489.603.025-.006.05-.009.075-.008h.002z" class="B"/><path d="M69.735 87.917c13.289-6.925 70.417-18.198 87.796-2.684s2.229 45.928-.857 50.74-9.711 3.356-9.711 3.356l-4.919 5.281-14.22-15.426 2.556-2.812s-12.778-2.785 3.663-23.492" class="D"/><path d="M142.043 144.937a.29.29 0 0 1-.122-.027.3.3 0 0 1-.103-.074l-14.22-15.423c-.057-.061-.088-.143-.088-.229s.031-.167.088-.229l2.195-2.42c-1.006-.359-3.178-1.426-4.073-4.128-1.483-4.478 1.236-11.121 8.082-19.742.026-.036.058-.066.095-.088s.078-.037.12-.042a.3.3 0 0 1 .126.012c.041.012.078.034.111.062a.35.35 0 0 1 .079.104c.019.04.03.084.033.129s-.003.089-.017.131a.35.35 0 0 1-.066.114c-8.331 10.494-8.935 16.178-7.973 19.095 1.035 3.143 4.1 3.856 4.132 3.862.055.012.106.039.148.078s.072.09.089.146.018.117.005.174-.04.11-.079.152l-2.345 2.584 13.783 14.963 4.693-5.037a.31.31 0 0 1 .133-.085c.051-.016.104-.019.156-.008.062.014 6.455 1.352 9.387-3.217 1.449-2.259 6.037-11.002 8.055-21.24 2.526-12.8.124-22.579-7.141-29.064-9.983-8.912-32.604-8.208-45.199-6.995-18.116 1.745-35.711 6.315-42.254 9.724a.3.3 0 0 1-.24.017.32.32 0 0 1-.181-.166c-.037-.079-.043-.169-.016-.252s.084-.151.158-.19c6.596-3.435 24.287-8.036 42.474-9.788 12.693-1.224 35.504-1.921 45.663 7.147 4.052 3.618 6.656 8.322 7.737 13.984.887 4.639.755 9.926-.387 15.718-2.039 10.342-6.692 19.188-8.156 21.476-2.883 4.498-8.782 3.714-9.861 3.521l-4.81 5.155a.31.31 0 0 1-.212.097z" class="B"/><path d="M146.621 139.001h-.052l-4.688 5.09-13.593-14.91 2.434-2.711c-.488-.13-.958-.325-1.399-.581 7.16 1.483 14.3 9.418 17.298 13.112z" class="D"/><path d="M113.254 135.447c-.07.001-.138-.024-.194-.069a.34.34 0 0 1-.111-.181c-.017-.072-.011-.148.018-.215s.079-.123.141-.157l3.743-2.078c.074-.04.16-.049.24-.023a.32.32 0 0 1 .185.162c.039.078.047.168.022.252s-.08.154-.154.195l-3.743 2.075a.29.29 0 0 1-.147.039zm-1.122 11.972c-.041.002-.083-.004-.122-.018a.32.32 0 0 1-.105-.066.33.33 0 0 1-.074-.103c-.018-.039-.028-.081-.031-.125a.34.34 0 0 1 .017-.127c.013-.041.035-.079.063-.112s.06-.058.098-.077a.29.29 0 0 1 .118-.032c3.721-.478 7.181-2.255 9.829-5.046.055-.065.133-.105.216-.11s.165.025.227.084.1.14.104.227-.023.174-.079.239c-.155.183-3.864 4.496-10.223 5.264l-.038.002zm6.338 5.094h-.096c-.083 0-.163-.035-.222-.097s-.091-.146-.091-.233.033-.172.091-.234a.31.31 0 0 1 .222-.096h.092c4.676 0 8.886-4.496 8.929-4.542.059-.059.137-.093.219-.092s.16.033.218.093.092.141.095.227-.027.169-.082.232c-.178.196-4.433 4.742-9.375 4.742z" class="B"/><g fill="#e1e3ea"><path d="M104.229 87.17c.855 0 1.548-.729 1.548-1.628s-.693-1.628-1.548-1.628-1.547.729-1.547 1.628.692 1.628 1.547 1.628z"/><use xlink:href="#B"/><use xlink:href="#B" x="26.202" y="-8.498"/><use xlink:href="#B" x="42.834" y="8.526"/><path d="M151.105 124.686c.855 0 1.548-.729 1.548-1.629s-.693-1.628-1.548-1.628-1.547.729-1.547 1.628.692 1.629 1.547 1.629z"/></g><path d="M160.174 120.736c-.033 0-.065-.005-.096-.016a.31.31 0 0 1-.11-.06c-.032-.028-.059-.062-.078-.101a.34.34 0 0 1-.036-.125c-.003-.044.002-.088.015-.13 3.5-11.336 2.246-19.022.579-23.472-1.803-4.815-4.467-6.989-4.494-7.011-.066-.053-.109-.132-.12-.218s.011-.174.061-.244a.31.31 0 0 1 .208-.126.3.3 0 0 1 .231.062c.113.092 2.809 2.282 4.681 7.248 1.716 4.557 3.015 12.415-.551 23.963-.019.065-.058.122-.11.163s-.115.064-.18.066zm-36.361 33.9h-.303c-.083 0-.163-.035-.222-.097a.34.34 0 0 1-.092-.233c0-.088.033-.172.092-.233a.31.31 0 0 1 .222-.097h.301c9.81 0 12.524-6.652 12.547-6.72.016-.04.039-.077.068-.108s.063-.055.102-.072.079-.025.12-.025a.31.31 0 0 1 .12.024.3.3 0 0 1 .102.072c.029.031.053.067.069.107a.34.34 0 0 1 .024.126.35.35 0 0 1-.024.127c-.031.072-2.906 7.129-13.126 7.129zm-5.469-3.321c-.53.008-1.054-.104-1.539-.328-.073-.038-.13-.104-.157-.185s-.024-.169.01-.247.095-.139.171-.171a.3.3 0 0 1 .235.002c3.262 1.561 9.071-4.044 9.13-4.101.029-.036.065-.065.105-.086a.29.29 0 0 1 .129-.032c.045-.001.089.008.13.027s.078.046.108.081.053.076.067.121.018.092.013.139-.02.092-.043.132a.33.33 0 0 1-.091.102c-.209.211-4.707 4.546-8.268 4.546zm-9.809-4.988a6.69 6.69 0 0 1-2.167-.33.31.31 0 0 1-.111-.061c-.033-.028-.06-.062-.08-.101s-.032-.082-.035-.127.001-.088.014-.131.034-.081.062-.114a.32.32 0 0 1 .1-.08c.038-.019.079-.031.121-.033a.31.31 0 0 1 .124.02c4.834 1.644 13.086-4.077 13.174-4.135.034-.027.073-.047.115-.058a.29.29 0 0 1 .128-.006c.043.008.083.024.119.048a.34.34 0 0 1 .091.094c.024.038.04.081.048.125a.36.36 0 0 1-.004.135.33.33 0 0 1-.054.121c-.026.037-.058.067-.096.089-.307.214-6.553 4.544-11.549 4.544z" class="C"/><path d="M172.548 100.677a.3.3 0 0 1-.06 0 .31.31 0 0 1-.114-.048c-.035-.024-.065-.055-.088-.091a.34.34 0 0 1-.047-.119c-.008-.043-.008-.087 0-.13 1.593-8.529-.107-15.196-5.052-19.817-2.291-2.111-5.022-3.626-7.972-4.421-.082-.018-.153-.069-.199-.142s-.062-.163-.045-.248a.33.33 0 0 1 .136-.209.3.3 0 0 1 .236-.047c3.053.804 5.879 2.366 8.241 4.555 3.532 3.301 7.319 9.512 5.272 20.465-.017.072-.056.137-.112.183s-.125.07-.196.07z" class="B"/><path d="M81.35 62.695s7.852 5.048 10.082-1.683 6.874-21.181 16.916-18.484 11.026 4.738 15.136-1.604 29.876-3.166 23.408 17.252c-10.596 33.46-68.59 24.9-68.59 24.9l-.722-8.034 3.77-12.347z" class="F"/><path d="M131.475 37.984c8.589 0 19.96 5.833 15.416 20.182-7.009 22.134-34.761 25.882-52.743 25.882-9.201 0-15.841-.981-15.841-.981l-.721-8.034 3.764-12.338s2.827 1.818 5.569 1.818c1.83 0 3.62-.808 4.513-3.501 2.043-6.161 6.114-18.823 14.513-18.823.811.004 1.618.115 2.403.33 5.144 1.375 7.911 2.586 9.939 2.586 1.932 0 3.193-1.1 5.197-4.181 1.223-1.886 4.36-2.931 7.992-2.931v-.009zm0-.651c-4.023 0-7.204 1.204-8.509 3.219-1.938 2.99-3.032 3.901-4.68 3.901-1.198 0-2.794-.491-5.002-1.171a146.7 146.7 0 0 0-4.783-1.395 9.86 9.86 0 0 0-2.557-.35c-3.804 0-7.194 2.438-10.073 7.246-2.353 3.923-3.915 8.641-4.948 11.764l-.084.257c-.682 2.055-1.964 3.057-3.921 3.057-2.537 0-5.215-1.703-5.243-1.721-.098-.063-.211-.097-.326-.097a.6.6 0 0 0-.22.042c-.089.035-.169.09-.235.162s-.115.159-.144.254l-3.764 12.338c-.027.085-.036.175-.027.264l.719 8.036c.013.148.074.287.171.394s.227.177.366.198c5.285.675 10.605 1.004 15.928.986 8.206 0 20.191-.812 30.695-4.678 11.857-4.364 19.477-11.651 22.645-21.654.916-2.891 1.255-5.6.979-8.054-.224-2.191-.985-4.284-2.208-6.073-1.533-2.24-3.848-4.066-6.692-5.281a21.06 21.06 0 0 0-8.089-1.642v-.002z" class="B"/><path d="M134.643 74.341c-28.812-8.472-53.08 3.648-53.08 3.648a12.53 12.53 0 0 0-.261 5.424c9.032.911 36.435 2.506 53.342-9.072z" fill="#59298f"/><path d="M66.126 52.677c4.569 0 8.273-3.897 8.273-8.705s-3.704-8.705-8.273-8.705-8.273 3.897-8.273 8.705 3.704 8.705 8.273 8.705z" class="F"/><path d="M66.134 35.268c1.837.002 3.62.646 5.07 1.832s2.484 2.846 2.938 4.718a9.13 9.13 0 0 1-.428 5.623c-.732 1.773-2.003 3.238-3.614 4.166a7.92 7.92 0 0 1-5.283.96c-1.813-.306-3.478-1.238-4.733-2.649s-2.027-3.222-2.196-5.146.276-3.853 1.264-5.482c.746-1.236 1.777-2.254 2.998-2.957s2.591-1.07 3.983-1.065zm0-.66c-2.143-.003-4.215.808-5.836 2.284s-2.681 3.517-2.986 5.749.165 4.505 1.324 6.402 2.93 3.289 4.987 3.923 4.262.465 6.21-.475 3.509-2.587 4.395-4.64a9.82 9.82 0 0 0 .431-6.536c-.609-2.162-1.939-4.021-3.745-5.234-1.427-.961-3.086-1.472-4.781-1.472z" class="B"/><path d="M86.512 73.351s6.227-4.621 4.314-10.283-3.3-5.345-4.124-8.401-5.546-6.544-10.259-5.64c0 0-5.241-5.087-10.51-4.245s-7.319 3.226-9.182 7.29-3.507 5.781-4.914 8.582-3.885 10.861 6.433 18.099 28.243-5.402 28.243-5.402z" class="F"/><path d="M67.141 44.688c4.835 0 9.306 4.339 9.306 4.339a8.16 8.16 0 0 1 1.543-.145c4.157 0 7.984 3.063 8.716 5.785.824 3.056 2.209 2.735 4.124 8.401s-4.314 10.283-4.314 10.283-10.837 7.647-20.508 7.647c-2.767 0-5.437-.627-7.737-2.236-10.318-7.237-7.84-15.289-6.432-18.099s3.045-4.529 4.914-8.582 3.913-6.449 9.182-7.29c.399-.063.801-.095 1.204-.095l.002-.009zm-.002-.651a8.42 8.42 0 0 0-1.299.101c-5.533.88-7.737 3.477-9.653 7.655a39.73 39.73 0 0 1-2.961 5.281 34.73 34.73 0 0 0-1.943 3.301 13.23 13.23 0 0 0-1.255 7.801c.627 4.181 3.285 7.922 7.886 11.154 2.221 1.558 4.939 2.348 8.083 2.348 5.111 0 10.512-2.113 14.145-3.884 2.322-1.122 4.566-2.417 6.713-3.875h.013c1.144-.897 2.159-1.962 3.015-3.162 1.855-2.623 2.384-5.347 1.526-7.882-1.092-3.235-2.024-4.586-2.775-5.67-.579-.838-.997-1.444-1.334-2.691-.797-2.964-4.822-6.265-9.32-6.265a8.99 8.99 0 0 0-1.351.103c-1.008-.911-5.056-4.297-9.498-4.297l.008-.018zm-.355 21.309h-.029c-3.683-.348-6.901-4.467-7.029-4.643-.052-.068-.077-.155-.069-.242s.05-.167.114-.222.147-.081.23-.072a.31.31 0 0 1 .211.12c.031.042 3.181 4.08 6.598 4.401.083.004.162.042.218.107a.34.34 0 0 1 .082.238c-.004.088-.04.17-.102.229a.31.31 0 0 1-.226.087v-.002z" class="B"/><path d="M66.706 62.844a8.9 8.9 0 0 1-2.476-.367c-.076-.026-.14-.083-.178-.157s-.047-.162-.026-.243a.33.33 0 0 1 .14-.195.3.3 0 0 1 .23-.04c6.98 2.011 9.895-5.343 10.017-5.657.031-.081.092-.146.169-.18a.3.3 0 0 1 .24-.002c.077.033.139.097.171.177s.033.172.002.253c-.027.073-2.53 6.412-8.287 6.412z" class="C"/><path d="M57.966 35.693c-.036 0-.071-.007-.105-.02-.039-.014-.075-.036-.105-.065s-.055-.064-.073-.103-.028-.081-.03-.125.004-.086.018-.127c.676-2.002 1.798-3.402 3.346-4.163 2.702-1.34 5.696-.22 5.822-.172.073.034.131.095.162.171s.034.163.008.241-.08.144-.15.182a.3.3 0 0 1-.228.026c-.027-.011-2.879-1.074-5.345.15-1.378.684-2.388 1.959-3.005 3.785a.33.33 0 0 1-.122.165c-.057.04-.124.059-.192.055z" class="B"/><path d="M60.659 41.555c-.054 0-.108-.015-.155-.043a.32.32 0 0 1-.114-.118c-.028-.049-.043-.105-.044-.162s.012-.113.037-.164c1.014-1.98 2.348-3.195 3.959-3.602 2.61-.66 4.975 1.041 5.073 1.113.066.051.11.126.123.211s-.005.171-.051.242-.117.12-.197.136a.3.3 0 0 1-.231-.046c-.023-.018-2.242-1.604-4.575-1.012-1.428.361-2.622 1.461-3.555 3.27a.32.32 0 0 1-.112.126.3.3 0 0 1-.157.048z" class="C"/><path d="M69.99 85.236v3.459s-5.696 8.991-16.654 1.613c0 0 5.374-8.128 8.252-17.775 0 0-4.055-1.157-3.222-4.982s3.812-4.324 5.502-3.186c0 0 6.568 5.349 14.22-9.224 0 0 7.089 3.521 8.214 11.462s-.793 16.994-6.66 19.311-9.651-.678-9.651-.678z" class="E"/><g class="B"><path d="M78.089 55.141s7.089 3.521 8.214 11.462-.793 16.994-6.66 19.311a11.88 11.88 0 0 1-4.391.88c-3.298 0-5.266-1.558-5.266-1.558v3.459s-2.865 4.522-8.438 4.522c-2.286 0-5.019-.761-8.216-2.909 0 0 5.374-8.129 8.252-17.775 0 0-4.055-1.157-3.222-4.982.581-2.674 2.215-3.721 3.722-3.721.63-.004 1.247.182 1.78.535a5.23 5.23 0 0 0 3.116.957c2.641 0 6.692-1.778 11.106-10.181h.004zm-.004-.66c-.112 0-.223.031-.319.091s-.176.146-.231.25c-4.27 8.142-8.097 9.843-10.556 9.843-.969.018-1.92-.268-2.733-.823l-.044-.031a3.83 3.83 0 0 0-2.119-.638c-1.65 0-3.655 1.111-4.335 4.234-.397 1.829.128 3.413 1.52 4.588a6.43 6.43 0 0 0 1.533.946c-2.857 9.18-7.932 16.915-7.984 16.994a.68.68 0 0 0-.099.242c-.017.087-.017.177-.001.264a.68.68 0 0 0 .097.243c.048.073.109.136.18.184 2.967 1.998 5.845 3.012 8.553 3.012 5.841 0 8.835-4.621 8.961-4.817.068-.108.105-.235.105-.365v-2.319c1.45.721 3.035 1.089 4.638 1.076 1.574-.014 3.132-.326 4.601-.922 2.915-1.151 5.102-3.904 6.33-7.961 1.071-3.538 1.33-7.823.73-12.065-.479-3.402-2.112-6.548-4.72-9.101-1.147-1.14-2.442-2.103-3.846-2.861-.084-.041-.175-.063-.268-.064h.006z"/><path d="M70.099 85.912c-.033 0-.067-.005-.098-.018-3.346-1.173-5.774-4.88-5.876-5.037-.023-.036-.04-.076-.048-.119a.35.35 0 0 1-.001-.129.34.34 0 0 1 .046-.119.33.33 0 0 1 .086-.092.31.31 0 0 1 .113-.05c.041-.009.082-.009.122-.001a.31.31 0 0 1 .201.138c.023.036 2.411 3.679 5.556 4.784.07.025.13.076.168.143s.053.146.041.223a.34.34 0 0 1-.106.198.3.3 0 0 1-.203.079zM61.687 70.74c-.057 0-.113-.016-.162-.047a.33.33 0 0 1-.116-.127c-.749-1.479-.884-2.676-.401-3.558.694-1.272 2.388-1.353 2.462-1.355.041-.002.082.004.121.019s.074.038.105.067.055.065.072.105a.34.34 0 0 1 .027.126c.003.087-.027.172-.084.237a.31.31 0 0 1-.218.106c-.023 0-1.424.075-1.943 1.025-.366.673-.226 1.655.418 2.916a.34.34 0 0 1 .036.163c-.002.056-.017.112-.044.161s-.067.089-.114.118-.1.044-.154.044h-.004z"/></g><path d="M77.775 66.884c-4.249.337-9.571-2.363-10.728-.948s-.696 3.6 1.474 4.434 4.391 1.078 8.992 1.349 9.114.176 8.925-2.456-2.415-2.876-8.664-2.379z" fill="#ffb49f"/><path d="M82.924 64.746a.3.3 0 0 1-.131-.029c-.041-.02-.078-.049-.107-.085-.013-.015-1.23-1.492-2.758-1.371a.3.3 0 0 1-.122-.016c-.039-.014-.075-.035-.107-.064s-.057-.063-.075-.102-.03-.081-.033-.124.002-.087.015-.128.034-.079.06-.112.06-.06.097-.079.077-.031.118-.034c1.847-.143 3.223 1.527 3.281 1.6a.34.34 0 0 1 .072.169c.008.062-.001.126-.026.183a.32.32 0 0 1-.115.139.31.31 0 0 1-.169.052v.002zm-4.713 10.17c-.072 0-.141-.026-.197-.074s-.094-.114-.109-.188l-1.399-7.099a.34.34 0 0 1 .045-.248c.046-.073.117-.124.199-.142a.3.3 0 0 1 .236.047.33.33 0 0 1 .135.209l1.399 7.099c.008.043.008.086.001.129a.34.34 0 0 1-.046.119c-.023.036-.052.067-.086.091a.31.31 0 0 1-.178.057z" class="B"/><path d="M59.919 73.726c.748 0 1.355-.638 1.355-1.426s-.607-1.426-1.355-1.426-1.355.638-1.355 1.426.607 1.426 1.355 1.426z" class="D"/><path d="M59.919 70.877a1.31 1.31 0 0 1 .829.299 1.43 1.43 0 0 1 .481.771c.075.306.05.63-.069.92a1.4 1.4 0 0 1-.59.682c-.263.152-.567.208-.864.158s-.569-.201-.775-.432a1.46 1.46 0 0 1-.36-.841c-.028-.315.044-.63.205-.897a1.37 1.37 0 0 1 .49-.485 1.29 1.29 0 0 1 .652-.175zm0-.66a1.92 1.92 0 0 0-1.297.51c-.36.329-.596.783-.663 1.279a2.17 2.17 0 0 0 .296 1.423c.258.422.652.731 1.109.872a1.89 1.89 0 0 0 1.381-.106c.433-.209.78-.576.977-1.032a2.19 2.19 0 0 0 .096-1.454c-.135-.481-.431-.894-.833-1.164a1.9 1.9 0 0 0-1.066-.328zm10.855-1.058c.424 0 .767-.361.767-.808s-.344-.807-.767-.807-.767.361-.767.807.344.808.767.808zm11.217.813c.424 0 .767-.362.767-.808s-.344-.807-.767-.807-.767.361-.767.807.344.808.767.808zm-8.615 10.971a4.77 4.77 0 0 1-1.913-.396c-2.869-1.241-4.034-4.938-4.082-5.096-.02-.081-.01-.168.029-.242s.102-.129.178-.155a.3.3 0 0 1 .231.016c.072.036.129.1.158.178.013.035 1.129 3.567 3.729 4.689 1.359.588 2.905.42 4.601-.5a.3.3 0 0 1 .233-.012.32.32 0 0 1 .177.16.35.35 0 0 1 .023.244c-.022.081-.074.151-.144.193-.987.574-2.091.889-3.218.92zm1.62-18.154a.3.3 0 0 1-.124-.027c-.039-.018-.075-.044-.104-.077-.209-.22-.883-.825-1.332-.66-.039.014-.08.021-.121.018a.3.3 0 0 1-.119-.032.33.33 0 0 1-.161-.188c-.014-.041-.02-.084-.017-.128s.013-.086.03-.125.043-.074.073-.103a.31.31 0 0 1 .105-.066c.912-.334 1.882.706 1.995.827a.33.33 0 0 1 .083.169.35.35 0 0 1-.02.189c-.024.06-.065.11-.116.146a.3.3 0 0 1-.173.053v.002zm59.078-6.254c-.073 0-.144-.026-.2-.075a.33.33 0 0 1-.109-.192c-.014-.075-.003-.153.032-.221s.09-.12.158-.149c21.493-9.116 29.826-23.697 33.04-34.327C170.473 10.047 168.848.555 168.831.46a.35.35 0 0 1 .001-.129c.008-.043.024-.083.048-.119a.31.31 0 0 1 .087-.09.3.3 0 0 1 .236-.047c.04.009.079.026.113.05a.33.33 0 0 1 .086.092.32.32 0 0 1 .046.12c.017.097 1.673 9.728-1.844 21.404-2.069 6.861-5.536 13.165-10.159 18.471-5.837 6.742-13.658 12.223-23.248 16.283-.038.021-.08.035-.123.04zm-1.315-6.686c-.073 0-.144-.027-.2-.076a.33.33 0 0 1-.108-.194.34.34 0 0 1 .034-.221.32.32 0 0 1 .161-.147c8.873-3.582 13.938-11.145 15.057-22.478.836-8.489-.983-16.024-1.002-16.098a.35.35 0 0 1-.013-.133.33.33 0 0 1 .038-.127c.021-.039.048-.074.082-.101s.072-.047.114-.059.084-.014.126-.007.083.023.119.047a.32.32 0 0 1 .091.092.36.36 0 0 1 .05.123c.018.075 1.867 7.701 1.022 16.314-.497 5.061-1.819 9.484-3.923 13.121-2.639 4.559-6.52 7.897-11.533 9.922a.29.29 0 0 1-.115.022z" class="B"/><path d="M55.188 89.745c-.06 0-.12-.018-.17-.053s-.091-.083-.116-.141-.033-.122-.025-.185.035-.122.075-.169c2.999-3.607 6.052-11.359 6.081-11.442a.33.33 0 0 1 .068-.108c.029-.031.064-.055.102-.072s.079-.025.12-.026a.3.3 0 0 1 .12.025c.038.016.073.041.102.071s.053.067.069.107.024.083.024.126-.008.086-.023.127c-.128.321-3.124 7.922-6.19 11.621-.029.037-.065.066-.105.087a.3.3 0 0 1-.131.032z" class="C"/><defs ><path id="B" d="M115.089 99.786c.854 0 1.547-.729 1.547-1.628s-.693-1.628-1.547-1.628-1.548.729-1.548 1.628.693 1.628 1.548 1.628z"/></defs></svg>