<svg width="16" height="16" viewBox="0 0 16 16" fill="none" xmlns="http://www.w3.org/2000/svg">
<path d="M11.96 8.66668C11.8723 8.66719 11.7853 8.65037 11.7041 8.61719C11.6228 8.58402 11.549 8.53513 11.4867 8.47334L8 4.99334L4.51333 8.48001C4.45357 8.5498 4.38002 8.60648 4.29731 8.6465C4.2146 8.68651 4.12451 8.709 4.0327 8.71254C3.94089 8.71609 3.84933 8.70062 3.76378 8.6671C3.67823 8.63359 3.60053 8.58275 3.53556 8.51778C3.47059 8.45281 3.41976 8.37511 3.38624 8.28956C3.35272 8.20401 3.33725 8.11246 3.3408 8.02064C3.34434 7.92883 3.36683 7.83874 3.40685 7.75603C3.44686 7.67332 3.50354 7.59978 3.57333 7.54001L7.52666 3.58001C7.58864 3.51753 7.66237 3.46793 7.74361 3.43408C7.82485 3.40024 7.91199 3.38281 8 3.38281C8.08801 3.38281 8.17514 3.40024 8.25638 3.43408C8.33762 3.46793 8.41136 3.51753 8.47333 3.58001L12.4267 7.54001C12.5508 7.66492 12.6205 7.83389 12.6205 8.01001C12.6205 8.18614 12.5508 8.3551 12.4267 8.48001C12.3014 8.60074 12.134 8.66772 11.96 8.66668Z" fill="#50CD89"/>
<path opacity="0.3" d="M7.99999 12.6667C7.82318 12.6667 7.65361 12.5965 7.52859 12.4714C7.40357 12.3464 7.33333 12.1768 7.33333 12V4.05335C7.33333 3.87654 7.40357 3.70697 7.52859 3.58195C7.65361 3.45693 7.82318 3.38669 7.99999 3.38669C8.17681 3.38669 8.34638 3.45693 8.4714 3.58195C8.59642 3.70697 8.66666 3.87654 8.66666 4.05335V12C8.66666 12.1768 8.59642 12.3464 8.4714 12.4714C8.34638 12.5965 8.17681 12.6667 7.99999 12.6667Z" fill="#50CD89"/>
</svg>
