<svg width="16" height="16" viewBox="0 0 16 16" fill="none" xmlns="http://www.w3.org/2000/svg">
<path opacity="0.3" d="M14.1667 12.3466L8.66666 14.5333C8.22659 14.7134 7.7334 14.7134 7.29333 14.5333L1.83333 12.3466C1.68453 12.2874 1.55692 12.1849 1.46702 12.0524C1.37712 11.9199 1.32906 11.7634 1.32906 11.6033C1.32906 11.4432 1.37712 11.2867 1.46702 11.1542C1.55692 11.0217 1.68453 10.9192 1.83333 10.86L2.66666 10.52L6.79333 12.1733C7.55558 12.4755 8.40441 12.4755 9.16666 12.1733L13.3333 10.52L14.1867 10.86C14.3347 10.9211 14.4609 11.0253 14.5491 11.1591C14.6372 11.2928 14.6832 11.4499 14.6811 11.6101C14.6789 11.7702 14.6287 11.9261 14.537 12.0574C14.4453 12.1887 14.3163 12.2895 14.1667 12.3466ZM8.66666 10.9333L14.1467 8.73996C14.2934 8.67969 14.4189 8.57716 14.5072 8.4454C14.5955 8.31363 14.6427 8.15859 14.6427 7.99996C14.6427 7.84134 14.5955 7.68629 14.5072 7.55453C14.4189 7.42277 14.2934 7.32024 14.1467 7.25996L8.66666 5.06663C8.23714 4.90373 7.76284 4.90373 7.33333 5.06663L1.83333 7.25996C1.6866 7.32024 1.5611 7.42277 1.47278 7.55453C1.38446 7.68629 1.3373 7.84134 1.3373 7.99996C1.3373 8.15859 1.38446 8.31363 1.47278 8.4454C1.5611 8.57716 1.6866 8.67969 1.83333 8.73996L7.33333 10.9333C7.76284 11.0962 8.23714 11.0962 8.66666 10.9333Z" fill="#3E97FF"/>
<path d="M7.33333 7.33332L1.83333 5.13999C1.68453 5.08079 1.55692 4.9783 1.46702 4.84578C1.37712 4.71325 1.32906 4.5568 1.32906 4.39666C1.32906 4.23652 1.37712 4.08006 1.46702 3.94754C1.55692 3.81501 1.68453 3.71252 1.83333 3.65332L7.33333 1.46666C7.76164 1.29733 8.23834 1.29733 8.66666 1.46666L14.1467 3.65332C14.2955 3.71252 14.4231 3.81501 14.513 3.94754C14.6029 4.08006 14.6509 4.23652 14.6509 4.39666C14.6509 4.5568 14.6029 4.71325 14.513 4.84578C14.4231 4.9783 14.2955 5.08079 14.1467 5.13999L8.66666 7.33332C8.23714 7.49622 7.76284 7.49622 7.33333 7.33332Z" fill="#3E97FF"/>
</svg>
