<svg width="214" height="230" viewBox="0 0 214 230" fill="none" xmlns="http://www.w3.org/2000/svg">
<path opacity="0.2" d="M48.5606 104.224C42.7988 102.773 38.0486 98.8582 33.5184 95.0316C24.5458 87.4666 15.5293 79.9015 6.55673 72.3803C16.0131 73.5239 25.6893 73.084 35.0138 71.0168C38.1366 70.3131 41.3473 69.4335 43.8544 67.4102C46.7133 65.1231 48.4286 61.7364 49.8801 58.3937C56.2576 44.0552 60.524 26.6379 52.3431 13.267C58.0609 23.2072 64.7463 32.6197 72.2235 41.2843C83.3952 26.0662 96.6341 12.3435 111.412 0.599976C109.785 9.26464 111.544 18.5011 116.207 25.9782C118.098 28.969 120.561 31.8279 123.86 33.0594C128.346 34.7308 133.36 33.1914 137.846 31.4761C149.502 27.1218 160.849 21.8877 171.757 15.906C161.773 24.1308 151.041 33.7192 149.81 46.6062C149.59 48.8054 149.854 51.4004 151.613 52.7199C153.064 53.7755 155 53.6875 156.803 53.5556C170.878 52.456 184.952 51.3124 199.027 50.2128C191.989 55.0949 185.304 60.5488 179.146 66.4866C176.991 68.5977 174.836 72.2044 177.035 74.2716C178.311 75.4592 180.29 75.2832 182.005 75.0633C191.154 73.9637 200.522 74.7994 209.363 77.4384C210.814 77.8782 212.398 78.45 213.145 79.8135C214.553 82.2765 212.222 85.1354 210.066 86.9827C197.443 97.7146 183.545 106.951 168.722 114.428C159.222 119.222 149.282 123.357 140.925 129.954C136.219 133.693 131.821 138.267 125.971 139.63C118.714 141.302 111.324 137.431 105.387 132.945C99.405 128.459 93.7752 123.093 86.6499 121.026C80.7562 119.31 74.2467 120.014 68.5729 117.683C59.8642 114.12 54.0145 103.828 44.6021 103.608" fill="white"/>
<path d="M194.672 108.535C193.749 113.593 191.506 118.343 189.13 122.917C185.744 129.47 182.093 135.848 178.223 142.138C176.507 144.908 174.66 147.767 172.021 149.703C168.107 152.562 162.961 153.045 158.078 152.43C154.912 156.124 151.701 159.819 147.83 162.81C146.599 163.777 145.279 164.657 143.784 165.185C139.606 166.592 134.855 164.569 130.545 164.613C130.237 165.009 129.885 165.361 129.489 165.713C123.156 171.694 114.579 175.169 105.87 175.257C98.3934 175.345 90.9602 172.926 84.8906 168.527C83.5711 169.451 82.3835 170.595 81.4159 171.914C78.3371 176.005 80.4483 180.183 80.9761 186.209C80.6682 186.253 80.4043 186.341 80.1404 186.385C82.5155 190.827 83.9669 195.753 84.3628 200.811C78.3811 200.635 72.3994 201.647 66.7695 203.802L66.9015 204.154C64.9222 201.119 63.3388 197.82 62.1513 194.346C62.0193 193.95 61.8874 193.51 61.8434 193.07C60.6119 193.73 59.4244 194.433 58.2368 195.137C50.7597 189.419 43.7664 182.822 39.2801 174.553C34.8378 166.284 33.2104 156.124 36.6851 147.372C39.8519 139.455 47.7688 133.297 56.1696 133.165C54.4543 128.855 53.6186 124.149 53.7945 119.53C54.1464 109.986 58.6326 100.969 64.7903 93.6243C65.1421 93.1845 65.538 92.7446 65.8899 92.3487C59.2044 84.3438 52.475 76.3829 45.7896 68.3779C62.3272 54.4353 80.6242 42.5159 100.109 33.0595C102.088 32.0919 104.507 31.1682 106.31 32.3998C107.058 32.9276 107.586 33.7633 108.07 34.555C116.119 48.0138 124.167 61.5166 132.216 74.9754C140.353 78.538 147.435 84.6957 151.701 92.5247C152.625 94.1961 153.416 95.9554 154.032 97.7587C154.34 97.4948 154.648 97.2308 154.912 96.9669C160.19 92.3927 166.259 88.4342 173.121 87.2027C179.982 86.0152 187.767 88.0823 191.857 93.7562C194.98 97.8906 195.596 103.476 194.672 108.535ZM108.07 175.213C103.188 175.213 99.273 187.22 99.273 202.043C99.273 216.865 103.232 228.872 108.07 228.872C112.908 228.872 116.866 216.865 116.866 202.043C116.866 187.22 112.952 175.213 108.07 175.213ZM59.6003 198.304C56.3455 199.184 55.3339 205.957 57.3572 213.39C59.3804 220.823 63.6467 226.189 66.9455 225.266C70.2002 224.386 71.2118 217.613 69.1886 210.179C67.1654 202.702 62.855 197.38 59.6003 198.304ZM147.435 192.498C144.048 192.146 140.705 198.084 139.913 205.781C139.122 213.478 141.233 219.988 144.576 220.296C147.962 220.647 151.305 214.71 152.097 207.013C152.888 199.36 150.777 192.85 147.435 192.498Z" fill="white"/>
<path d="M179.63 169.275C178.882 168.835 179.586 167.692 180.29 168.131C185.216 171.078 190.142 174.069 195.068 177.016C195.816 177.456 195.112 178.599 194.409 178.16C189.482 175.213 184.556 172.222 179.63 169.275ZM172.593 176.664C175.408 179.479 178.223 182.294 181.038 185.109C181.653 185.725 182.577 184.757 181.961 184.185C179.146 181.37 176.331 178.555 173.517 175.741C172.901 175.125 171.977 176.048 172.593 176.664ZM23.5342 178.687C18.4322 180.93 13.3301 183.218 8.22808 185.461C7.43639 185.813 8.14012 186.956 8.88783 186.604C13.9899 184.361 19.0919 182.074 24.1939 179.831C24.9417 179.479 24.2819 178.379 23.5342 178.687ZM26.3491 120.19C18.0803 121.773 9.63553 122.301 1.23476 121.729C0.399082 121.685 0.399082 123.005 1.23476 123.049C9.76748 123.621 18.3442 123.049 26.701 121.465C27.5367 121.333 27.1848 120.058 26.3491 120.19ZM23.3143 128.679C19.6637 129.426 15.9691 130.13 12.3185 130.878C11.4828 131.054 11.8347 132.329 12.6704 132.153C16.321 131.406 20.0155 130.702 23.6661 129.954C24.5018 129.778 24.15 128.503 23.3143 128.679ZM126.455 35.5224C127.554 32.9714 128.654 30.3764 129.753 27.8253C129.885 27.5175 129.841 27.1216 129.533 26.9017C129.27 26.7257 128.786 26.8137 128.61 27.1216C127.51 29.6726 126.411 32.2676 125.311 34.8186C125.179 35.1265 125.223 35.5224 125.531 35.7423C125.795 35.9182 126.279 35.8742 126.455 35.5224ZM51.0236 28.8809C49.1763 26.6817 47.329 24.4826 45.5257 22.2834C45.3058 22.0195 44.822 22.0635 44.6021 22.2834C44.3382 22.5473 44.3822 22.9432 44.6021 23.2071C46.4494 25.4063 48.2967 27.6054 50.1 29.8046C50.3199 30.0685 50.8037 30.0245 51.0236 29.8046C51.2875 29.5407 51.2435 29.1448 51.0236 28.8809ZM37.4328 25.4942C40.6876 28.0892 43.8984 30.7282 47.1531 33.3232C47.8129 33.851 48.7365 32.9273 48.0768 32.3995C44.822 29.8045 41.6113 27.1656 38.3565 24.5706C37.6968 24.0428 36.7731 24.9664 37.4328 25.4942Z" fill="#24668A"/>
<path d="M130.501 175.521C130.853 182.25 130.897 188.98 130.633 195.709C130.633 196.237 130.061 196.413 129.709 196.281H129.665C125.795 196.633 121.924 196.984 118.054 197.336C117.218 197.424 117.218 196.105 118.054 196.017C121.836 195.665 125.575 195.313 129.357 195.005C129.577 188.496 129.533 181.986 129.182 175.521C127.334 175.433 125.531 175.345 123.684 175.169C122.848 175.081 122.848 173.761 123.684 173.849C125.707 174.025 127.774 174.157 129.797 174.201V173.937C129.797 174.025 129.797 174.113 129.797 174.201C136.615 174.421 143.432 174.025 150.205 173.014C151.041 172.882 151.393 174.157 150.557 174.289C143.916 175.301 137.23 175.697 130.501 175.521ZM112.6 203.802C112.424 204.638 113.7 204.989 113.875 204.154C115.063 198.612 114.799 192.85 113.172 187.396C112.908 186.605 111.676 186.912 111.896 187.748C113.48 192.982 113.743 198.524 112.6 203.802ZM105.695 180.667C103.363 184.361 102.176 188.76 102.396 193.114C102.44 193.95 103.759 193.95 103.715 193.114C103.539 188.98 104.595 184.845 106.838 181.327C107.278 180.623 106.134 179.963 105.695 180.667ZM146.643 196.545C147.479 196.193 147.918 196.897 148.094 197.6C148.754 199.711 148.886 201.999 148.534 204.154C148.49 204.506 148.622 204.857 148.974 204.945C149.282 205.033 149.722 204.857 149.766 204.506C149.986 203.098 150.074 201.691 149.942 200.239C149.81 198.92 149.59 197.468 148.974 196.281C148.358 195.181 147.127 194.785 145.983 195.313C144.752 195.885 144.312 197.204 143.96 198.392C143.74 199.228 145.015 199.58 145.235 198.744C145.543 197.996 145.807 196.897 146.643 196.545ZM60.1281 214.138C59.8202 214.226 59.5563 214.622 59.6883 214.93C60.6999 217.657 62.1513 220.208 63.9546 222.495C64.3505 223.023 64.8343 223.462 65.4941 223.638C66.1098 223.77 66.7696 223.638 67.2974 223.286C68.4849 222.539 68.7928 221.131 68.9687 219.856C69.0127 219.504 68.8807 219.152 68.5289 219.064C68.221 218.976 67.7812 219.152 67.7372 219.504C67.6052 220.472 67.4733 221.703 66.5496 222.231C65.582 222.803 64.8783 221.571 64.3945 220.911C62.987 218.976 61.8434 216.821 60.9638 214.578C60.8318 214.27 60.48 214.05 60.1281 214.138ZM193.705 114.472C192.165 118.607 190.098 122.565 187.987 126.436C185.788 130.526 183.501 134.573 181.126 138.531C178.97 142.182 176.859 146.184 173.692 149.087C170.878 151.682 167.227 152.913 163.444 153.177C161.729 153.309 160.014 153.221 158.342 153.045C156.495 155.201 154.648 157.312 152.669 159.335C151.041 160.962 149.282 162.59 147.391 163.953C147.083 163.601 146.775 163.294 146.467 162.986C146.555 162.898 146.643 162.854 146.775 162.766C150.689 159.907 153.944 156.168 157.111 152.518C154.692 151.286 152.185 150.187 149.634 149.263C147.127 148.383 144.576 147.679 142.025 147.108C140.837 146.844 139.474 146.492 138.33 146.976C137.89 147.152 137.582 147.416 137.274 147.724C137.274 147.768 137.274 147.811 137.274 147.855C137.318 149.263 136.439 150.45 135.251 151.066C133.228 154.849 131.249 158.675 129.27 162.458C128.742 162.898 128.214 163.381 127.774 163.909C127.73 163.997 127.686 164.085 127.642 164.173L127.07 165.053C126.982 165.097 126.894 165.097 126.806 165.141C126.675 165.317 126.543 165.493 126.411 165.713C126.323 165.625 126.235 165.493 126.235 165.361C122.98 166.46 119.417 166.68 115.899 166.46C114.887 166.416 113.875 166.328 112.908 166.24C113.128 167.78 112.776 169.363 111.676 170.551C110.885 171.43 109.829 172.002 108.685 172.134C108.817 172.882 108.905 173.63 109.037 174.377C113.875 173.893 118.582 172.354 122.804 169.891C123.596 169.407 124.387 168.923 125.135 168.396C124.915 169.011 124.739 169.671 124.607 170.331C123.684 170.903 122.76 171.43 121.792 171.914C118.274 173.674 114.535 174.905 110.665 175.477C114.711 178.644 117.57 189.156 117.57 201.955C117.57 202.262 117.57 202.614 117.57 202.922C119.725 202.834 121.88 202.878 123.992 203.01C129.182 203.406 134.328 204.594 139.21 206.485C139.21 206.221 139.254 205.957 139.298 205.649C140.133 197.468 143.784 191.399 147.566 191.795C151.349 192.19 153.68 198.876 152.844 207.057C152.449 210.839 151.437 214.402 149.986 216.953C148.534 219.548 146.731 220.911 144.971 220.911C144.84 220.911 144.752 220.911 144.62 220.911C142.728 220.735 141.145 218.932 140.177 215.941C139.43 213.654 139.122 210.839 139.21 207.848C132.348 205.165 124.959 203.89 117.614 204.242C117.218 218.536 113.216 229.4 108.158 229.4C103.188 229.4 99.2291 218.844 98.7453 204.858C94.9627 205.121 91.1802 205.649 87.4416 206.397C87.3536 206.441 87.3097 206.441 87.2217 206.441C87.1777 207.277 87.1337 208.112 87.1337 208.948C87.0897 209.784 85.7702 209.784 85.8142 208.948C85.9022 206.265 86.0341 203.538 86.1221 200.855C86.1221 200.371 86.562 200.151 86.9578 200.239C87.0018 200.063 87.1337 199.887 87.3976 199.843C91.0922 198.788 94.9627 198.216 98.7892 198.172C99.273 187.528 101.78 178.995 105.167 175.785C103.803 175.785 102.396 175.653 101.032 175.477C95.3146 174.729 89.8167 172.53 85.0665 169.231C84.0549 169.979 83.1313 170.859 82.3396 171.87C80.8442 173.761 80.4483 175.961 80.6682 178.336C80.7562 179.127 80.8441 179.919 80.9761 180.711C81.196 181.59 81.4159 182.426 81.5919 183.306C81.6358 183.526 81.5919 183.702 81.5039 183.834C81.6358 184.581 81.7238 185.329 81.8118 186.077C81.8558 186.341 81.5919 186.648 81.328 186.692H81.284C81.9437 187.968 82.5155 189.332 82.9993 190.695C84.1869 193.906 84.8906 197.248 85.1545 200.679C85.1545 200.811 85.1105 200.943 85.0225 201.075C84.6267 200.591 84.1869 200.107 83.703 199.712C83.2192 195.269 81.8997 190.959 79.8765 187C73.8948 188.32 68.089 190.431 62.7231 193.29C62.855 193.994 63.2069 194.741 63.4268 195.313C63.7787 196.281 64.1746 197.248 64.6144 198.172C64.7903 198.568 65.0102 199.008 65.1862 199.404C65.0542 199.536 64.9223 199.668 64.8343 199.799C65.0542 200.019 65.2301 200.283 65.4501 200.503C67.1654 202.658 68.6608 205.649 69.6284 208.992C74.8624 209.124 80.0964 209.3 85.3304 209.564C86.1661 209.608 86.1661 210.927 85.3304 210.883C80.2284 210.619 75.0823 210.443 69.9803 210.311C71.9595 218.052 70.728 224.738 67.1214 225.705C66.8135 225.793 66.5496 225.837 66.2417 225.837C62.7671 225.837 58.7206 220.647 56.7414 213.346C54.5862 205.429 55.7738 198.436 59.4684 197.424C60.6559 197.117 61.9314 197.424 63.2069 198.348C62.5472 196.897 61.9314 195.401 61.4916 193.862C60.5679 194.39 59.6003 194.917 58.7206 195.489C58.5447 195.621 58.2368 195.621 58.0609 195.489C52.7829 191.443 47.7249 187 43.5905 181.766C36.3772 172.618 31.935 160.303 35.5856 148.735C38.3125 140.114 46.3174 132.901 55.4219 132.329C54.1464 128.811 53.3987 125.072 53.3107 121.29C53.0908 111.481 57.3132 102.069 63.2949 94.46C63.9107 93.6683 64.5704 92.8765 65.2301 92.1288C58.6767 84.2998 52.0792 76.4709 45.5257 68.6419C45.3058 68.378 45.2178 67.9381 45.5257 67.7182C46.3174 67.0145 47.1531 66.3548 47.9888 65.6951C54.5422 60.3291 61.3157 55.2711 68.353 50.5209C75.3903 45.7707 82.6474 41.4163 90.0806 37.3699C91.9279 36.3583 93.8191 35.3907 95.7104 34.423C97.5577 33.4994 99.361 32.4877 101.252 31.74C102.924 31.0363 104.903 30.5965 106.574 31.4762C107.41 31.916 107.982 32.6637 108.466 33.4114C109.081 34.335 109.609 35.3027 110.181 36.2703C114.975 44.3192 119.813 52.3682 124.607 60.4171C127.378 65.0353 130.105 69.6535 132.876 74.2277C137.055 76.075 140.925 78.582 144.312 81.6608C148.622 85.5753 152.405 90.7214 154.56 96.3512C159.662 91.909 165.512 87.9944 172.153 86.543C178.838 85.0916 186.623 86.499 191.418 91.689C197.003 97.9786 196.432 107.127 193.705 114.472ZM64.3505 201.515C62.943 199.799 61.5356 198.832 60.348 198.832C60.1721 198.832 59.9962 198.876 59.7763 198.92C57.2252 199.624 55.9057 205.517 57.9729 213.214C60.0401 220.911 64.1746 225.354 66.7256 224.65C69.2766 223.946 70.5961 218.096 68.5289 210.487C66.5496 210.443 64.5704 210.399 62.5912 210.399C61.7555 210.399 61.7555 209.08 62.5912 209.08C64.4384 209.124 66.2858 209.124 68.133 209.168C67.2094 206.133 65.8899 203.45 64.3505 201.515ZM140.441 207.057C142.332 207.848 144.18 208.728 145.983 209.74C146.731 210.136 146.071 211.279 145.323 210.883C143.696 210.004 142.069 209.168 140.353 208.464C140.309 211.103 140.617 213.61 141.277 215.633C142.069 218.096 143.256 219.548 144.62 219.68C145.939 219.812 147.435 218.624 148.71 216.381C150.074 213.962 151.041 210.619 151.437 206.969C152.273 199.052 149.986 193.422 147.347 193.158C147.259 193.158 147.215 193.158 147.127 193.158C144.532 193.158 141.321 198.128 140.529 205.869C140.529 206.265 140.485 206.661 140.441 207.057ZM124.167 72.9962C123.376 76.4708 122.716 79.9896 122.232 83.5082C120.517 95.9554 120.737 108.666 122.892 121.026C122.936 121.202 122.892 121.334 122.804 121.466C123.684 121.729 124.519 121.993 125.399 122.257C124.871 119.002 124.431 115.748 124.124 112.449C123.024 99.7379 123.948 86.8508 126.806 74.4036C126.982 73.5679 128.258 73.9198 128.082 74.7555C127.29 78.2302 126.631 81.7489 126.147 85.2675C124.475 97.187 124.651 109.37 126.543 121.246C127.29 120.542 127.994 119.838 128.698 119.09C129.577 118.123 130.545 117.067 130.941 115.748C130.985 115.616 131.029 115.44 131.029 115.308C130.765 115.528 130.457 115.704 130.061 115.792C129.05 116.1 127.774 115.836 127.158 114.912C126.499 113.9 126.894 112.669 127.774 111.965C128.742 111.218 129.973 111.174 130.941 111.921C131.073 112.009 131.205 112.141 131.337 112.273C131.557 111.481 131.645 110.69 131.689 109.942C131.909 106.995 131.161 104.048 129.665 101.541C129.226 100.794 130.369 100.134 130.809 100.882C131.557 102.113 132.128 103.433 132.48 104.796C133.228 107.479 133.36 110.646 132.392 113.241C132.348 113.417 132.26 113.593 132.172 113.768C132.304 114.164 132.348 114.604 132.348 115.044C132.26 116.539 131.469 117.859 130.545 118.959C129.401 120.366 128.082 121.554 126.762 122.829C126.806 123.313 126.367 123.621 125.971 123.621C125.751 123.841 125.531 124.105 125.311 124.324C123.728 126.084 122.408 128.195 122.54 130.658C122.672 133.077 124.255 135.32 126.235 136.64C128.478 138.135 131.205 138.531 133.8 137.959C139.694 136.728 143.74 131.934 146.863 127.139C148.534 124.588 150.118 121.993 151.569 119.31C153.02 116.583 154.252 113.768 154.78 110.69C155.835 104.708 154.164 98.4624 151.349 93.1405C148.93 88.6102 145.543 84.6517 141.585 81.397C136.571 77.2626 130.545 74.3597 124.167 72.9962ZM129.885 112.801C129.138 112.493 127.686 113.373 128.346 114.252C129.006 115.132 130.325 114.428 130.765 113.768C130.765 113.725 130.809 113.725 130.809 113.681C130.633 113.285 130.325 112.977 129.885 112.801ZM65.9779 91.3371C70.816 85.9712 76.5338 81.441 82.4275 77.2186C81.8558 75.8991 81.7238 74.4037 82.2076 73.0402C82.7354 71.5448 83.9669 70.4012 85.3744 69.7854C81.3719 66.3987 77.2375 57.9979 80.8002 53.6436C85.4624 47.9258 91.3121 50.4329 92.6756 42.5599C96.5901 44.6271 96.854 50.169 95.4905 52.1482C95.0507 52.808 94.5229 53.3358 94.0391 53.7756C95.2706 53.8636 96.5021 54.1274 97.6897 54.5233C99.493 55.183 101.208 56.1507 102.968 56.9864C104.771 57.866 106.53 58.7457 108.334 59.6254C111.676 61.2967 115.019 62.9681 118.406 64.5955C118.758 64.7714 118.846 65.3871 118.538 65.651C115.899 67.8942 113.26 70.1373 110.577 72.3364C110.753 72.8642 110.973 73.348 111.148 73.8758C113.436 79.8136 115.723 85.7513 117.966 91.689C118.098 92.0848 117.878 92.3487 117.57 92.4367C117.042 94.7678 115.899 96.8791 114.359 98.6824C111.236 102.377 106.486 104.488 101.692 104.224C96.854 103.96 92.1478 101.541 89.3329 97.5828C89.2449 97.4508 89.2009 97.3189 89.2009 97.2309C89.1569 97.1429 89.157 97.055 89.157 96.923C89.2449 91.3372 89.157 85.7953 88.937 80.2095C88.4532 80.3414 87.9254 80.4294 87.3976 80.4294C86.562 80.4294 85.6823 80.2534 84.9346 79.8576C84.2308 79.5057 83.6151 78.9779 83.1313 78.3182C81.284 79.6377 79.4807 80.9571 77.6773 82.3646C77.7653 82.4086 77.8533 82.4525 77.9413 82.5405C80.4043 85.2235 82.6474 88.1264 84.6707 91.1612C88.2333 96.5272 91.0922 102.377 93.2034 108.447C95.2266 114.34 96.4581 120.498 96.942 126.7C98.4374 126.128 99.8888 125.556 101.34 124.896C105.255 123.181 109.213 121.334 113.436 120.63C115.459 120.278 117.482 120.234 119.505 120.586C120.209 120.718 120.869 120.85 121.528 121.026C120.913 117.551 120.473 114.076 120.165 110.602C119.065 97.9346 119.989 85.0915 122.804 72.6443C119.637 72.0725 116.382 71.8966 113.128 72.1165C112.292 72.1605 112.292 70.841 113.128 70.797C114.359 70.7091 115.635 70.6651 116.866 70.7091C121.572 70.841 126.235 71.8087 130.633 73.48C127.686 68.5539 124.739 63.6278 121.792 58.7017C117.086 50.8287 112.38 42.9558 107.718 35.1268C107.234 34.3351 106.794 33.4114 106.002 32.8396C105.299 32.3558 104.375 32.2678 103.539 32.3998C101.604 32.7076 99.8448 33.7633 98.1295 34.6429C94.4349 36.4902 90.7843 38.4255 87.1777 40.4487C79.9645 44.4951 72.9272 48.8935 66.1098 53.5997C59.4244 58.2179 52.9589 63.144 46.7572 68.378C48.6925 70.6651 50.5838 72.9522 52.519 75.2394C57.0493 80.6493 61.5356 85.9712 65.9779 91.3371ZM91.3561 128.679C92.8075 128.239 94.259 127.755 95.6664 127.271C95.4025 123.797 94.9187 120.322 94.171 116.891C92.8075 110.69 90.6524 104.708 87.7495 99.0782C84.8466 93.4923 81.284 88.2584 77.0176 83.5962C76.8857 83.4642 76.8417 83.2883 76.8417 83.1563C76.3139 83.5962 75.7421 84.036 75.2143 84.4758C77.2375 87.2907 79.2607 90.1057 81.196 92.9646C88.1453 103.345 93.8631 115.836 91.3561 128.679ZM89.157 70.2693C89.069 70.6211 88.7171 70.841 88.3653 70.797C86.386 70.4012 84.1429 71.6327 83.4831 73.524C82.8234 75.4152 83.747 77.8344 85.5503 78.758C87.3536 79.6817 89.8607 79.0659 91.0042 77.4385C91.2242 77.1306 91.62 77.0866 91.9279 77.2625C92.2358 77.4824 92.2798 77.8783 92.1038 78.1862C91.62 78.8899 91.0042 79.4177 90.2565 79.8136C90.5204 85.5314 90.5644 91.2932 90.5204 97.011C91.9719 99.0782 93.9951 100.618 96.2822 101.673C100.373 103.52 105.167 103.52 109.125 101.365C112.908 99.3421 115.723 95.6915 116.514 91.4252C116.075 90.2376 115.591 89.05 115.151 87.8625C113.172 82.6725 111.192 77.5264 109.169 72.3364C109.081 72.1165 109.169 71.8086 109.345 71.6767C111.852 69.5655 114.403 67.4544 116.91 65.3432C115.371 64.5955 113.875 63.8477 112.38 63.1C109.037 61.4286 105.739 59.7573 102.396 58.1299C101.648 57.778 100.9 57.3822 100.109 56.9864C100.241 57.1183 100.373 57.2502 100.505 57.3822C100.724 57.6901 100.768 58.042 100.505 58.3059C100.285 58.5698 99.8009 58.5698 99.5809 58.3059C99.449 58.1299 99.317 57.998 99.1411 57.866C99.0971 57.8221 99.0971 57.8221 99.0531 57.7781C98.9652 57.7341 98.8772 57.6461 98.7892 57.6021C98.7452 57.6021 98.7013 57.5582 98.6573 57.5582H98.6133C98.5254 57.5142 98.4374 57.5141 98.3494 57.4701C98.3054 57.4701 98.3054 57.4701 98.2615 57.4701C98.2175 57.4701 98.2175 57.4701 98.2175 57.4701C98.1735 57.4701 98.1295 57.4701 98.0855 57.4701C98.0855 57.4701 98.0855 57.4701 98.0415 57.4701C97.9976 57.4701 97.9976 57.4701 98.0415 57.4701C97.9536 57.4701 97.8216 57.5142 97.7776 57.5142C97.7336 57.5142 97.6897 57.5582 97.6897 57.5582C97.6457 57.5582 97.6017 57.6021 97.6017 57.6461L97.5577 57.69L97.5137 57.7341C97.5137 57.7341 97.5137 57.7341 97.5137 57.7781C97.5137 57.8221 97.4697 57.866 97.4697 57.866C97.4697 57.91 97.4258 57.954 97.4258 57.998C97.4258 58.042 97.4258 58.1299 97.4258 58.0419C97.4258 57.954 97.4258 58.0859 97.4258 58.1739C97.4258 58.2179 97.4258 58.2179 97.4258 58.2618C97.4258 58.3058 97.5137 58.4378 97.4258 58.2618C97.5577 58.6137 97.5137 58.9656 97.2059 59.1855C96.942 59.3615 96.4581 59.2735 96.2822 58.9656C96.0183 58.3938 96.0183 57.778 96.3262 57.2502C96.5901 56.7224 97.1179 56.3706 97.6457 56.2387C97.9096 56.1947 98.1735 56.1507 98.3934 56.1947C96.4581 55.359 94.3909 54.8312 92.2358 55.183C92.1478 55.183 92.1038 55.183 92.0159 55.183C90.1686 56.1946 88.6731 57.0743 89.025 60.593C89.2889 63.188 91.1802 65.9149 89.069 69.2576L88.6292 69.4775C88.6731 69.4775 88.7611 69.4776 88.8051 69.5216C88.981 69.5655 89.2009 69.8734 89.157 70.2693ZM58.9845 137.299C60.1281 139.279 61.4916 141.126 63.031 142.841C64.5704 144.513 66.3297 146.184 68.5729 146.756C71.0359 147.416 73.6309 146.624 75.918 145.656C77.1056 145.172 78.2491 144.601 79.3927 144.029C80.4483 143.501 81.5039 142.929 82.3835 142.138C83.6591 141.038 84.7146 139.587 84.3628 137.827C84.0549 136.376 83.2192 135.056 82.6914 133.693C82.0757 132.021 81.9437 130.306 82.6035 128.591C83.0433 127.491 83.6591 126.48 83.879 125.336C84.0549 124.149 83.791 122.961 83.3952 121.817C82.5595 119.53 81.0641 117.595 80.2724 115.308C79.5686 113.241 79.3487 110.91 80.6242 109.018C81.108 108.315 82.2516 108.974 81.7678 109.678C81.152 110.602 80.9321 111.657 81.0201 112.757C81.4159 117.595 86.6939 121.466 84.9346 126.612C84.5387 127.711 83.923 128.723 83.6151 129.866C83.5711 130.086 83.5271 130.306 83.5271 130.526C85.2425 130.218 86.9578 129.866 88.6731 129.427C89.2009 129.295 89.7287 129.163 90.2565 129.031C90.1246 128.899 90.0806 128.679 90.1246 128.459C90.8283 125.028 90.8723 121.51 90.4324 118.079C88.893 105.676 81.4599 95.1637 74.2907 85.3115C69.8924 89.05 65.8459 93.1844 62.5032 97.9346C57.1372 105.632 53.7506 114.912 54.7622 124.368C55.202 128.855 56.6974 133.341 58.9845 137.299ZM87.1777 147.416C87.2657 147.548 87.2217 147.284 87.0897 147.46L87.0458 147.504C86.9578 147.68 87.0458 147.899 87.1777 148.075C88.5412 148.119 89.9047 148.163 91.2681 148.207C91.0922 148.075 90.9603 147.855 90.9163 147.635C90.5644 144.557 87.9254 141.83 84.8906 141.39C83.5711 143.369 81.4159 144.557 79.3047 145.568C76.9736 146.712 74.5546 147.899 71.9595 148.251C71.1239 148.383 70.2882 148.383 69.4525 148.251C70.9919 150.011 72.7513 151.594 74.7305 152.87C75.6981 153.485 76.7537 154.233 77.8973 154.453C78.4251 154.585 78.9089 154.541 79.2608 154.145C79.6126 153.793 79.8765 153.353 80.3163 153.089C81.4599 152.43 82.5595 153.309 83.5271 153.881C84.4068 154.409 85.5064 154.585 86.518 154.233C87.4416 153.925 88.1014 153.089 88.1893 152.122C88.2333 151.638 88.1893 151.11 87.9254 150.67C87.6615 150.187 87.1777 149.879 86.7819 149.571C85.9902 148.911 85.2424 147.635 86.0341 146.668C86.6059 145.964 87.8375 145.92 88.3213 146.756C88.7611 147.46 87.6175 148.119 87.1777 147.416ZM95.4465 164.085C98.0415 163.777 100.637 163.821 103.232 163.997C103.627 163.162 104.243 162.458 104.991 162.018C104.155 162.018 104.199 160.743 105.035 160.699C105.695 160.655 106.398 160.698 107.058 160.83C107.014 159.687 106.926 158.499 106.882 157.356C105.431 157.532 103.935 157.224 102.748 156.388C100.681 154.981 99.6249 152.298 100.109 149.879C96.2822 149.747 92.4557 149.615 88.6292 149.527C88.7171 149.615 88.7611 149.659 88.8491 149.747C89.5088 150.626 89.6847 151.77 89.4208 152.825C88.893 154.981 86.7379 156.08 84.6267 155.772C84.0549 155.684 83.5271 155.508 83.0433 155.245C82.5595 154.981 82.1197 154.541 81.5919 154.365C81.0201 154.145 80.7562 154.541 80.4043 154.937C80.0524 155.333 79.6566 155.64 79.1288 155.816C78.0732 156.124 76.9297 155.684 75.962 155.201C74.8624 154.629 73.8508 153.969 72.8392 153.265C70.86 151.814 69.1006 150.099 67.5612 148.163C67.4733 148.075 67.4293 147.987 67.4293 147.899C66.5496 147.592 65.7579 147.152 64.9663 146.58C63.031 145.172 61.4476 143.325 60.0401 141.434C58.6327 139.543 57.4012 137.475 56.3895 135.32C56.1696 134.88 55.9937 134.397 55.7738 133.913C51.3315 134.133 47.0211 135.98 43.6345 138.927C39.676 142.314 37.081 146.932 36.0254 152.034C34.8818 157.576 35.5855 163.381 37.4328 168.703C41.1274 179.391 49.5282 187.66 58.3248 194.434C65.0542 190.299 72.5313 187.396 80.2724 185.813C80.0964 184.273 79.7885 182.734 79.5246 181.195C79.3927 180.755 79.3047 180.359 79.1728 179.919L72.9712 165.669C71.8716 163.645 70.728 161.622 69.6284 159.599C69.2326 158.851 70.3322 158.191 70.772 158.939C71.7397 160.699 72.7513 162.458 73.6749 164.217C75.7421 168.044 77.6773 171.914 79.2168 176.005C79.4807 174.069 80.2724 172.31 81.6358 170.727C85.1545 166.636 90.3445 164.657 95.4465 164.085ZM107.674 174.509C107.542 173.717 107.41 172.926 107.322 172.134C106.706 172.046 106.09 171.782 105.519 171.386C103.583 170.023 102.572 167.56 102.88 165.229C100.812 165.097 98.7893 165.053 96.722 165.229C93.0714 165.537 89.2889 166.504 86.1661 168.527C91.2681 172.002 97.2938 174.113 103.407 174.509C104.815 174.597 106.266 174.597 107.674 174.509ZM98.6133 203.626C98.6133 203.098 98.6133 202.57 98.6133 202.043C98.6133 201.207 98.6133 200.415 98.6573 199.624C94.9627 199.668 91.2681 200.239 87.6615 201.251C87.5736 201.295 87.4416 201.295 87.3536 201.251C87.3096 202.57 87.2657 203.89 87.1777 205.209C90.9603 204.374 94.7868 203.89 98.6133 203.626ZM109.257 176.181C109.345 176.752 109.433 177.368 109.521 177.94C109.565 178.292 109.433 178.644 109.081 178.732C108.773 178.82 108.334 178.644 108.29 178.292C108.158 177.5 108.026 176.664 107.894 175.873C104.331 176.137 100.593 184.933 100.021 198.26C102.704 198.304 105.431 198.612 108.07 199.14C108.905 199.316 108.553 200.591 107.718 200.415C105.167 199.887 102.572 199.624 99.9768 199.58C99.9328 200.371 99.9328 201.207 99.9328 201.999C99.9328 202.526 99.9328 203.01 99.9328 203.494C101.516 203.406 103.1 203.362 104.683 203.362C105.519 203.362 105.519 204.682 104.683 204.682C103.1 204.682 101.516 204.726 99.9328 204.813C100.417 218.888 104.331 228.125 108.026 228.125C111.984 228.125 116.163 217.613 116.163 201.955C116.207 187.968 112.82 178.028 109.257 176.181ZM110.313 163.865C109.785 163.294 109.125 162.854 108.422 162.546C108.422 162.59 108.378 162.678 108.334 162.722C108.202 162.898 108.026 162.986 107.762 162.942C107.674 162.942 107.542 162.898 107.454 162.854C106.574 162.634 105.651 162.942 104.991 163.557C104.243 164.305 104.023 165.449 104.111 166.504C104.243 168.22 105.343 170.111 107.014 170.727C107.19 170.771 107.366 170.815 107.542 170.859C107.586 170.815 107.63 170.815 107.674 170.771C107.85 170.727 108.07 170.771 108.246 170.859C109.521 170.771 110.709 169.891 111.28 168.703C112.072 167.164 111.5 165.097 110.313 163.865ZM132.48 153.485C131.952 153.705 131.381 153.881 130.809 153.881C129.226 153.925 127.774 153.089 126.675 151.99C125.971 153.221 124.519 154.057 123.068 153.837C122.1 153.705 121.221 153.089 120.649 152.298C119.989 153.089 118.977 153.617 117.922 153.617C116.119 153.573 114.667 152.166 114.007 150.538C113.875 150.187 113.787 149.879 113.7 149.527C112.732 149.659 111.72 149.791 110.753 150.011C110.797 150.978 110.797 151.902 110.841 152.87C110.841 153.397 110.885 153.925 110.885 154.453C110.885 154.981 110.885 155.289 110.489 155.684C109.829 156.3 108.993 156.74 108.114 157.048C108.202 158.411 108.246 159.775 108.334 161.138C109.873 161.666 111.236 162.634 112.072 164.085C112.248 164.349 112.38 164.613 112.468 164.921C113.216 165.009 113.963 165.053 114.711 165.141C118.933 165.449 123.288 165.273 127.158 163.645C128.698 160.699 130.237 157.752 131.821 154.761C132.04 154.365 132.26 153.925 132.48 153.485ZM135.823 147.372C135.559 146.492 134.723 145.788 133.8 145.744C133.272 145.7 132.832 144.997 133.316 144.601C134.987 143.281 136.835 141.874 137.626 139.85C137.846 139.191 137.978 138.575 137.978 137.915C137.274 138.267 136.571 138.575 135.823 138.795C133.316 139.631 130.457 139.807 127.95 138.883C125.663 138.047 123.64 136.42 122.452 134.309C121.221 132.154 121.001 129.602 121.924 127.315C122.496 125.82 123.464 124.544 124.519 123.357C122.32 122.741 120.165 121.905 117.922 121.773C113.656 121.51 109.477 122.961 105.607 124.588C101.648 126.216 97.7776 128.019 93.7312 129.339C90.4324 130.394 87.0457 131.23 83.6151 131.846C83.659 132.022 83.6591 132.154 83.703 132.329C84.0989 133.869 84.9786 135.232 85.5064 136.772C85.9022 137.915 85.9462 139.103 85.5943 140.202C89.1569 140.994 91.9279 144.029 92.3677 147.635C92.4117 147.899 92.1918 148.119 91.9719 148.207C95.0067 148.295 98.0415 148.383 101.032 148.515C101.428 148.515 101.824 148.911 101.648 149.351C100.9 151.462 101.648 154.057 103.583 155.289C104.551 155.904 105.739 156.124 106.882 155.992C106.838 155.245 107.806 155.157 108.114 155.684C108.685 155.464 109.213 155.157 109.697 154.717C109.653 152.957 109.609 151.198 109.521 149.439C109.521 149.175 109.741 148.867 110.005 148.823C111.236 148.603 112.468 148.383 113.7 148.251C113.7 146.844 114.051 145.392 114.491 144.073C115.767 139.982 117.922 136.2 120.693 132.901C121.221 132.241 122.188 133.209 121.616 133.825C120.341 135.364 119.197 136.992 118.23 138.751C117.394 140.29 116.646 141.874 116.075 143.501C115.459 145.216 114.843 147.108 115.063 148.955C115.239 150.362 116.119 151.902 117.57 152.254C118.582 152.518 119.857 151.814 120.077 150.758C120.033 150.494 120.033 150.231 120.033 149.923C120.121 149.219 121.177 148.955 121.309 149.747C121.353 150.055 121.397 150.318 121.353 150.626C121.529 151.55 122.232 152.43 123.244 152.562C124.475 152.738 125.619 151.77 125.839 150.582C125.927 150.143 126.631 149.923 126.938 150.274C127.818 151.374 129.05 152.474 130.545 152.562C131.777 152.65 133.096 151.902 133.36 150.626C133.404 150.318 133.712 150.187 133.976 150.143C134.064 150.143 134.196 150.099 134.284 150.055C134.723 149.175 135.207 148.207 135.823 147.372ZM194.233 107.127C194.716 103.213 194.277 99.0782 192.341 95.5595C190.626 92.4367 187.811 90.1496 184.556 88.8741C177.431 86.0592 169.734 87.9064 163.312 91.689C160.366 93.4483 157.551 95.5156 154.912 97.8027C156.407 102.201 156.935 106.819 156.055 111.437C155.483 114.384 154.296 117.155 152.888 119.794C151.481 122.477 149.854 125.072 148.182 127.623C145.807 131.318 142.948 134.924 139.21 137.211C139.386 138.399 139.166 139.631 138.638 140.774C137.89 142.402 136.571 143.677 135.163 144.777C135.867 145.128 136.439 145.656 136.791 146.316C137.362 145.876 138.066 145.568 138.814 145.48C140.133 145.304 141.453 145.656 142.728 145.92C148.226 147.152 153.504 149.087 158.474 151.726C158.518 151.726 158.518 151.77 158.562 151.77C161.861 152.166 165.16 152.034 168.371 150.846C172.241 149.395 174.792 146.272 176.947 142.885C179.366 139.103 181.609 135.232 183.809 131.318C186.008 127.403 188.163 123.489 190.098 119.442C192.033 115.616 193.705 111.481 194.233 107.127ZM85.1545 73.3481C84.8466 73.524 84.7586 73.9639 84.9346 74.2718C85.1105 74.5796 85.5064 74.6676 85.8582 74.4917C87.1777 73.8319 88.8491 73.8319 90.1686 74.4476C90.4764 74.5796 90.8723 74.5356 91.0922 74.2277C91.2681 73.9199 91.1802 73.48 90.8723 73.304C89.025 72.4684 86.9578 72.4684 85.1545 73.3481ZM91.532 64.1996C94.8308 62.9241 98.0415 61.5167 101.252 59.9773C102 59.6254 102.704 60.7689 101.912 61.1208C101.472 61.3407 101.076 61.5166 100.637 61.6926C100.681 61.7365 100.768 61.7805 100.812 61.8245C100.944 61.9565 100.988 62.0884 101.076 62.2203C101.164 62.4402 101.164 62.6602 101.12 62.8801C101.076 63.1 100.944 63.3199 100.768 63.4519C100.593 63.6278 100.373 63.7598 100.153 63.8038C99.9328 63.8477 99.6689 63.8917 99.449 63.8038C99.1851 63.7158 98.9652 63.5399 98.7892 63.276C98.6573 63.0561 98.6133 62.7921 98.6573 62.5282C97.4697 63.056 96.3262 63.5838 95.1386 64.0676C95.1826 64.1116 95.2266 64.1996 95.2706 64.2436C95.3146 64.3316 95.3586 64.4635 95.4026 64.5515C95.4465 64.6394 95.4465 64.7714 95.4465 64.9033C95.4465 65.1233 95.4025 65.3432 95.2706 65.5631C95.2266 65.6071 95.2266 65.6511 95.1826 65.6951C95.1387 65.739 95.1387 65.7829 95.0947 65.8269C95.0067 65.9149 94.9187 65.9589 94.8308 66.0029C94.7428 66.0469 94.6988 66.0909 94.6108 66.0909C94.5229 66.0909 94.4349 66.1349 94.347 66.1349C94.303 66.1349 94.215 66.1349 94.171 66.1349C94.0391 66.1349 93.9511 66.0908 93.8191 66.0468C93.7312 66.0029 93.5992 65.959 93.5113 65.915C93.4673 65.871 93.3793 65.827 93.3353 65.783C93.2914 65.739 93.2474 65.651 93.2034 65.607C93.1154 65.519 93.1154 65.3871 93.0714 65.2991V65.2552C93.0714 65.2552 93.0714 65.2552 93.0714 65.2112C93.0714 65.1232 93.0275 65.0352 93.0275 64.9473C92.6756 65.0792 92.2797 65.2551 91.9279 65.3871C91.0922 65.7829 90.7403 64.5074 91.532 64.1996ZM94.303 64.9473C94.303 64.9473 94.303 64.9913 94.347 64.9913C94.303 64.9473 94.303 64.9473 94.303 64.9473ZM90.8723 62.4843C91.8839 62.0884 92.8955 61.7365 93.9071 61.3407C94.215 61.2087 94.4789 60.9008 94.347 60.5489C94.259 60.2411 93.8631 59.9772 93.5553 60.1091C92.5436 60.505 91.532 60.8569 90.5204 61.2527C90.2125 61.3847 89.9486 61.6926 90.0806 62.0444C90.1246 62.3523 90.5204 62.6162 90.8723 62.4843ZM97.9096 57.5142C97.9096 57.4702 97.9096 57.4702 97.9096 57.5142V57.5142ZM99.8448 80.4294C99.7129 80.4294 99.5809 80.4294 99.449 80.4294C99.449 80.4294 99.361 80.4294 99.317 80.4294C99.273 80.4294 99.2291 80.4293 99.1851 80.3854C98.9212 80.3414 98.6573 80.2534 98.4374 80.1655C98.0855 80.0335 97.5137 79.7256 97.2498 79.5057C97.0299 79.3298 96.854 79.1539 96.678 78.9779C96.5901 78.89 96.5021 78.802 96.4142 78.6701C96.3262 78.5821 96.4141 78.67 96.3702 78.582C96.3262 78.538 96.2822 78.4501 96.2382 78.4061C95.9303 77.9223 95.7544 77.5704 95.6225 77.0426C95.5345 76.6907 95.1386 76.4708 94.8308 76.6028C94.4789 76.6907 94.303 77.0866 94.3909 77.3945C95.0067 79.8575 97.3818 81.7049 99.8888 81.7049C100.681 81.7488 100.681 80.4294 99.8448 80.4294Z" fill="#24668A"/>
<path d="M124.387 174.333C123.816 169.539 126.147 164.481 130.149 161.798C134.152 159.115 139.738 158.851 143.96 161.182C148.182 163.513 150.953 168.351 150.821 173.189" fill="#50CD89"/>
<path d="M62.4152 210.267C60.9198 206.089 62.899 200.987 66.1978 198.612C69.4525 196.237 73.6309 196.061 77.4135 196.94C80.2724 197.556 83.1313 198.832 85.0666 201.339C87.0018 203.89 87.6615 207.936 85.9902 210.707L85.7703 210.443C78.2931 209.651 70.772 209.344 63.2949 209.564" fill="#50CD89"/>
</svg>
