<svg width="22" height="22" viewBox="0 0 22 22" fill="none" xmlns="http://www.w3.org/2000/svg">
<g opacity="0.3">
<path d="M16.2617 3.20834H5.73833C3.58166 3.20834 1.83333 4.95667 1.83333 7.11334V14.8867C1.83333 17.0433 3.58166 18.7917 5.73833 18.7917H16.2617C18.4183 18.7917 20.1667 17.0433 20.1667 14.8867V7.11334C20.1667 4.95667 18.4183 3.20834 16.2617 3.20834Z" fill="#A1A5B7"/>
</g>
<path d="M11 11.9167C10.2702 11.9138 9.5639 11.6579 9.00167 11.1925L5.885 8.61669C5.74521 8.49513 5.65943 8.32302 5.64654 8.13822C5.63365 7.95341 5.69469 7.77106 5.81625 7.63127C5.93781 7.49148 6.10992 7.4057 6.29472 7.39281C6.47952 7.37992 6.66188 7.44096 6.80167 7.56252L9.9 10.1384C10.2156 10.404 10.6149 10.5497 11.0275 10.5497C11.4401 10.5497 11.8394 10.404 12.155 10.1384L15.1708 7.58085C15.3049 7.47572 15.4736 7.42489 15.6435 7.43848C15.8133 7.45207 15.9718 7.52907 16.0875 7.65419C16.2047 7.79359 16.2627 7.97335 16.249 8.15497C16.2353 8.33659 16.151 8.50562 16.0142 8.62585L12.9983 11.1834C12.4393 11.6554 11.7317 11.9151 11 11.9167Z" fill="#A1A5B7"/>
</svg>
