<svg width="16" height="16" viewBox="0 0 16 16" fill="none" xmlns="http://www.w3.org/2000/svg">
<path d="M12.1533 14.5133C11.18 13.7133 6.2 13.62 4.34666 14.2533C4.17054 14.3056 3.98361 14.3097 3.80537 14.2652C3.62713 14.2206 3.46412 14.129 3.33333 14L1.48666 12.1533C2.96 10.6667 7.33333 10.2067 10.7067 10.7067C10.9533 12.3667 11.4333 13.7933 12.1533 14.5133ZM12.6667 1.99999C12.5342 1.86268 12.3661 1.765 12.1812 1.7179C11.9964 1.67079 11.802 1.67614 11.62 1.73333C9.76666 2.39999 4.78666 2.27333 3.81333 1.47333C4.7 2.33999 5.12 3.83999 5.33333 5.29333C6.21634 5.42245 7.10759 5.48706 8 5.48666C10.7067 5.48666 13.42 4.93999 14.5133 3.84666L12.6667 1.99999Z" fill="#3E97FF"/>
<path opacity="0.3" d="M14.26 11.64C14.314 11.8186 14.3184 12.0085 14.2726 12.1894C14.2268 12.3703 14.1325 12.5353 14 12.6666L12.16 14.4933C10.6667 13.04 10.2067 8.66663 10.7067 5.2933C12.3667 5.04663 13.7933 4.56663 14.5133 3.84663C13.72 4.80663 13.6267 9.78663 14.26 11.64ZM5.49332 7.92663C5.49332 6.1333 5.26665 2.9133 3.84665 1.48663L1.99999 3.3333C1.86137 3.46767 1.76345 3.6384 1.71746 3.82589C1.67147 4.01338 1.67928 4.21004 1.73999 4.3933C2.05235 5.5489 2.19827 6.74315 2.17332 7.93997C2.17332 10.4733 1.70665 11.9066 1.50665 12.1666C2.21332 11.4266 3.64665 10.9466 5.33332 10.7C5.45596 9.78083 5.50944 8.85378 5.49332 7.92663Z" fill="#3E97FF"/>
</svg>
