<svg width="34" height="35" viewBox="0 0 34 35" fill="none" xmlns="http://www.w3.org/2000/svg">
<path fill-rule="evenodd" clip-rule="evenodd" d="M22.8807 11.5884C21.2797 9.9572 19.186 9.1346 17.0786 9.1346V17.5L11.2766 23.4115C14.4787 26.674 19.6786 26.674 22.8944 23.4115C26.0965 20.149 26.0965 14.8509 22.8807 11.5884ZM17.0786 3.55768C9.52502 3.55768 3.39453 9.80383 3.39453 17.5C3.39453 25.1961 9.52502 31.4423 17.0786 31.4423C24.6323 31.4423 30.7628 25.1961 30.7628 17.5C30.7628 9.80383 24.6323 3.55768 17.0786 3.55768ZM17.0786 28.6538C11.0303 28.6538 6.13135 23.6625 6.13135 17.5C6.13135 11.3375 11.0303 6.34614 17.0786 6.34614C23.127 6.34614 28.0259 11.3375 28.0259 17.5C28.0259 23.6625 23.127 28.6538 17.0786 28.6538Z" fill="white"/>
</svg>
