<svg width="49" height="39" viewBox="0 0 49 39" fill="none" xmlns="http://www.w3.org/2000/svg">
<path fill-rule="evenodd" clip-rule="evenodd" d="M43.5 19.5C43.5 17.695 44.5212 16.1275 46.0175 15.32C47.4425 14.5362 48.25 12.9213 48.25 11.2825V5.25C48.25 2.6375 46.1125 0.5 43.5 0.5H5.5C2.8875 0.5 0.77375 2.61375 0.77375 5.22625V11.2825C0.77375 12.9213 1.5575 14.5363 3.00625 15.2963C4.5025 16.1275 5.5 17.695 5.5 19.5C5.5 21.305 4.47875 22.8962 2.9825 23.68C1.5575 24.4638 0.75 26.0788 0.75 27.7175V33.75C0.75 36.3625 2.8875 38.5 5.5 38.5H43.5C46.1125 38.5 48.25 36.3625 48.25 33.75V27.7175C48.25 26.0788 47.4425 24.4638 46.0175 23.68C44.5212 22.8725 43.5 21.305 43.5 19.5ZM30.4375 29.2375L24.5 25.4375L18.5625 29.2613C17.66 29.8313 16.4963 29 16.7812 27.955L18.5625 21.115L13.1 16.65C12.2688 15.9612 12.6963 14.6075 13.7888 14.5362L20.8188 14.1325L23.3838 7.60125C23.7875 6.60375 25.2125 6.60375 25.5925 7.60125L28.1575 14.1562L35.1875 14.56C36.2562 14.6312 36.7075 15.985 35.8763 16.6737L30.4137 21.1388L32.2188 27.9312C32.5037 29 31.34 29.8312 30.4375 29.2375Z" fill="#3E97FF"/>
</svg>
