<svg width="21" height="20" viewBox="0 0 21 20" fill="none" xmlns="http://www.w3.org/2000/svg">
<path opacity="0.3" d="M19.39 8.52999L18 7.11999C17.9031 7.02503 17.8265 6.91134 17.7749 6.78584C17.7234 6.66034 17.6979 6.52566 17.7 6.38999V4.38999C17.6987 4.11599 17.6433 3.84495 17.5369 3.59244C17.4305 3.33993 17.2753 3.11092 17.0802 2.91857C16.885 2.72622 16.6538 2.57432 16.3998 2.4716C16.1458 2.36888 15.874 2.31736 15.6 2.31999H13.6C13.4643 2.32213 13.3297 2.29663 13.2042 2.24506C13.0787 2.19348 12.965 2.11691 12.87 2.01999L11.47 0.609993C11.08 0.220395 10.5513 0.0015564 10 0.0015564C9.44873 0.0015564 8.92001 0.220395 8.53 0.609993L7.12 1.99999C7.02504 2.09691 6.91135 2.17348 6.78585 2.22506C6.66035 2.27663 6.52567 2.30213 6.39 2.29999H4.39C4.116 2.3013 3.84496 2.35672 3.59245 2.46309C3.33994 2.56946 3.11093 2.72467 2.91858 2.91981C2.72623 3.11494 2.57433 3.34616 2.47161 3.60018C2.36889 3.85419 2.31736 4.126 2.32 4.39999V6.39999C2.32214 6.53566 2.29664 6.67034 2.24506 6.79584C2.19349 6.92134 2.11691 7.03503 2.02 7.12999L0.61 8.52999C0.220403 8.92 0.00156403 9.44872 0.00156403 9.99999C0.00156403 10.5513 0.220403 11.08 0.61 11.47L2 12.88C2.09691 12.975 2.17349 13.0886 2.22506 13.2141C2.27664 13.3396 2.30214 13.4743 2.3 13.61V15.61C2.30131 15.884 2.35673 16.155 2.4631 16.4075C2.56947 16.6601 2.72468 16.8891 2.91981 17.0814C3.11495 17.2738 3.34617 17.4257 3.60019 17.5284C3.8542 17.6311 4.12601 17.6826 4.4 17.68H6.4C6.53567 17.6779 6.67035 17.7034 6.79585 17.7549C6.92135 17.8065 7.03504 17.8831 7.13 17.98L8.54 19.39C8.93001 19.7796 9.45873 19.9984 10.01 19.9984C10.5613 19.9984 11.09 19.7796 11.48 19.39L12.88 18C12.975 17.9031 13.0887 17.8265 13.2142 17.7749C13.3397 17.7234 13.4743 17.6979 13.61 17.7H15.61C16.1617 17.7 16.6907 17.4809 17.0808 17.0908C17.4709 16.7007 17.69 16.1716 17.69 15.62V13.62C17.6879 13.4843 17.7134 13.3496 17.7649 13.2241C17.8165 13.0986 17.8931 12.985 17.99 12.89L19.4 11.48C19.5938 11.286 19.7473 11.0557 19.8517 10.8022C19.9561 10.5487 20.0094 10.2771 20.0085 10.0029C20.0075 9.72876 19.9524 9.45749 19.8463 9.20471C19.7401 8.95193 19.5851 8.72263 19.39 8.52999Z" fill="#3E97FF"/>
<path d="M8.74 13.21C8.64084 13.2086 8.54294 13.1876 8.45197 13.1481C8.36099 13.1086 8.27875 13.0515 8.21 12.98L5.84 10.58C5.76712 10.5106 5.70894 10.4273 5.66894 10.3349C5.62894 10.2426 5.60793 10.1431 5.60717 10.0425C5.60641 9.94185 5.62591 9.84209 5.66451 9.74915C5.70311 9.65621 5.76001 9.57199 5.83184 9.5015C5.90367 9.43101 5.98895 9.3757 6.08261 9.33886C6.17626 9.30202 6.27637 9.28441 6.37697 9.28707C6.47757 9.28973 6.57661 9.31261 6.66819 9.35435C6.75976 9.39608 6.842 9.45582 6.91 9.53001L8.75 11.4L13.13 7.12001C13.2706 6.97956 13.4613 6.90067 13.66 6.90067C13.8588 6.90067 14.0494 6.97956 14.19 7.12001C14.3305 7.26063 14.4093 7.45125 14.4093 7.65001C14.4093 7.84876 14.3305 8.03938 14.19 8.18001L9.27 13C9.19994 13.0683 9.11701 13.122 9.02604 13.1581C8.93506 13.1941 8.83784 13.2118 8.74 13.21Z" fill="#3E97FF"/>
</svg>
